<?xml version="1.0" encoding="iso-8859-1"?>
<!-- Generator: Adobe Illustrator 19.0.0, SVG Export Plug-In . SVG Version: 6.00 Build 0)  -->
<svg xmlns="http://www.w3.org/2000/svg" xmlns:xlink="http://www.w3.org/1999/xlink" version="1.1" id="Capa_1" x="0px" y="0px" viewBox="0 0 512 512" style="enable-background:new 0 0 512 512;" xml:space="preserve" width="512px" height="512px">
<g>
	<g>
		<path d="M162.028,47.288h-0.252c-5.541,0-10.033,4.493-10.033,10.033s4.492,10.033,10.033,10.033h0.252    c5.541,0,10.033-4.493,10.033-10.033S167.569,47.288,162.028,47.288z" fill="#16a085"/>
	</g>
</g>
<g>
	<g>
		<path d="M202.158,47.288h-0.252c-5.541,0-10.033,4.493-10.033,10.033s4.492,10.033,10.033,10.033h0.252    c5.541,0,10.033-4.493,10.033-10.033S207.699,47.288,202.158,47.288z" fill="#16a085"/>
	</g>
</g>
<g>
	<g>
		<path d="M121.897,47.288h-0.252c-5.541,0-10.033,4.493-10.033,10.033s4.492,10.033,10.033,10.033h0.252    c5.541,0,10.033-4.493,10.033-10.033S127.438,47.288,121.897,47.288z" fill="#16a085"/>
	</g>
</g>
<g>
	<g>
		<path d="M178.434,445.667h-30.619c-5.541,0-10.033,4.493-10.033,10.033s4.492,10.033,10.033,10.033h30.619    c5.541,0,10.033-4.493,10.033-10.033S183.975,445.667,178.434,445.667z" fill="#16a085"/>
	</g>
</g>
<g>
	<g>
		<path d="M501.967,154.449H326.249V10.033c0-5.54-4.492-10.033-10.033-10.033H10.033C4.492,0,0,4.493,0,10.033v491.935    C0,507.507,4.492,512,10.033,512h306.184c5.541,0,10.033-4.493,10.033-10.033V334.309h175.718c5.541,0,10.033-4.493,10.033-10.033    V164.482C512,158.941,507.508,154.449,501.967,154.449z M306.184,491.935H20.065v-71.79h286.119V491.935z M491.935,314.244    h-266.89c-1.559,0-3.097,0.363-4.492,1.062l-46.631,23.346v-81.147c0-5.54-4.492-10.033-10.033-10.033    s-10.033,4.493-10.033,10.033v97.39c0,3.478,1.801,6.709,4.76,8.536c1.61,0.995,3.439,1.497,5.272,1.497    c1.535,0,3.074-0.352,4.492-1.061l59.034-29.557h78.767v65.771H20.065V113.792h246.971c5.541,0,10.033-4.493,10.033-10.033    s-4.492-10.033-10.033-10.033H20.065V20.065h286.119v134.384H163.89c-5.541,0-10.033,4.493-10.033,10.033v25.47    c0,5.54,4.492,10.033,10.033,10.033s10.033-4.493,10.033-10.033v-15.437h318.012V314.244z" fill="#16a085"/>
	</g>
</g>
<g>
	<g>
		<path d="M163.709,212.827h-0.01c-5.541,0-10.028,4.493-10.028,10.033s4.497,10.033,10.038,10.033    c5.541,0,10.033-4.493,10.033-10.033S169.25,212.827,163.709,212.827z" fill="#16a085"/>
	</g>
</g>
<g>
	<g>
		<path d="M440.731,214.351H225.722c-5.541,0-10.033,4.493-10.033,10.033s4.492,10.033,10.033,10.033h215.009    c5.541,0,10.033-4.493,10.033-10.033S446.272,214.351,440.731,214.351z" fill="#16a085"/>
	</g>
</g>
<g>
	<g>
		<path d="M440.731,254.482H225.722c-5.541,0-10.033,4.493-10.033,10.033s4.492,10.033,10.033,10.033h215.009    c5.541,0,10.033-4.493,10.033-10.033S446.272,254.482,440.731,254.482z" fill="#16a085"/>
	</g>
</g>
<g>
</g>
<g>
</g>
<g>
</g>
<g>
</g>
<g>
</g>
<g>
</g>
<g>
</g>
<g>
</g>
<g>
</g>
<g>
</g>
<g>
</g>
<g>
</g>
<g>
</g>
<g>
</g>
<g>
</g>
</svg>
