<?xml version="1.0" encoding="iso-8859-1"?>
<!-- Generator: Adobe Illustrator 19.0.0, SVG Export Plug-In . SVG Version: 6.00 Build 0)  -->
<svg xmlns="http://www.w3.org/2000/svg" xmlns:xlink="http://www.w3.org/1999/xlink" version="1.1" id="Layer_1" x="0px" y="0px" viewBox="0 0 512 512" style="enable-background:new 0 0 512 512;" xml:space="preserve" width="512px" height="512px">
<g>
	<g>
		<g>
			<path d="M487.086,48.424l-23.507-23.507c-16.068-16.068-37.43-24.916-60.152-24.916s-44.084,8.848-60.152,24.915l-77.576,77.576     c-28.651,28.653-32.525,72.82-11.669,105.699l-45.815,45.815c-13.501-8.601-29.18-13.219-45.575-13.219     c-22.723,0-44.085,8.849-60.152,24.915l-77.573,77.576C8.848,359.344,0,380.707,0,403.428s8.848,44.083,24.914,60.149     l23.508,23.508c16.067,16.067,37.428,24.914,60.151,24.914s44.084-8.848,60.151-24.915L246.3,409.51     c28.654-28.655,32.528-72.823,11.669-105.702l45.815-45.815c13.5,8.601,29.18,13.221,45.575,13.221     c22.721,0,44.084-8.848,60.152-24.915l77.575-77.575C503.151,152.657,512,131.295,512,108.573S503.151,64.491,487.086,48.424z      M232.077,395.288L154.5,472.863c-12.266,12.268-28.577,19.023-45.927,19.023c-17.35,0-33.66-6.757-45.927-19.023l-23.508-23.508     c-12.269-12.268-19.024-28.578-19.024-45.927s6.757-33.66,19.026-45.929l77.575-77.575     c12.266-12.268,28.577-19.023,45.928-19.023c10.965,0,21.507,2.713,30.881,7.8l-23.227,23.227     c-2.485-0.556-5.046-0.856-7.656-0.856c-9.291,0-18.025,3.618-24.594,10.187l-77.575,77.575     c-6.569,6.568-10.188,15.303-10.188,24.594c0,9.291,3.618,18.025,10.187,24.593l23.508,23.508     c6.571,6.569,15.305,10.187,24.594,10.187s18.025-3.618,24.596-10.187l77.576-77.575c8.732-8.733,11.823-20.987,9.309-32.23     l23.218-23.218C256.548,343.113,252.836,374.529,232.077,395.288z M155.886,356.113c6.649,6.649,15.487,10.309,24.89,10.309     c3.693,0,7.297-0.573,10.719-1.663l-72.548,72.546c-2.772,2.772-6.456,4.297-10.375,4.297s-7.603-1.526-10.372-4.295     l-23.508-23.508c-2.771-2.771-4.297-6.454-4.297-10.372s1.526-7.601,4.298-10.373l72.582-72.582     C143.397,332.628,146.261,346.487,155.886,356.113z M191.442,341.892c-2.85,2.85-6.637,4.419-10.666,4.419     c-4.029,0-7.818-1.569-10.666-4.417c-5.882-5.882-5.882-15.452,0-21.334l147.762-147.764c2.942-2.942,6.803-4.411,10.666-4.411     s7.726,1.471,10.666,4.411c5.882,5.882,5.882,15.452,0,21.334L191.442,341.892z M353.428,158.574     c-9.628-9.628-23.487-12.491-35.643-8.612l75.267-75.268c2.772-2.772,6.456-4.297,10.375-4.297s7.602,1.526,10.372,4.297     l23.508,23.508c2.771,2.771,4.297,6.454,4.297,10.372s-1.526,7.601-4.298,10.373l-75.269,75.272     C365.918,182.063,363.055,168.201,353.428,158.574z M472.863,154.501l-77.575,77.575c-12.268,12.268-28.578,19.024-45.928,19.024     c-10.965,0-21.507-2.713-30.882-7.8l23.226-23.226c2.486,0.557,5.047,0.857,7.657,0.857c9.291,0,18.025-3.618,24.596-10.187     l77.572-77.575c6.571-6.569,10.189-15.305,10.189-24.596s-3.619-18.026-10.187-24.594l-23.507-23.507     c-6.568-6.571-15.304-10.19-24.594-10.19s-18.025,3.618-24.596,10.187l-77.575,77.575c-8.732,8.732-11.824,20.985-9.31,32.23     l-23.218,23.218c-13.276-24.606-9.564-56.021,11.194-76.78l77.576-77.576c12.266-12.266,28.578-19.023,45.928-19.023     s33.66,6.757,45.928,19.024l23.507,23.507c12.268,12.268,19.024,28.579,19.024,45.928S485.13,142.234,472.863,154.501z" fill="#16a085"/>
			<path d="M322.614,400.18l-85.48,85.48c-3.927,3.927-3.927,10.294,0,14.221c1.965,1.964,4.537,2.945,7.111,2.945     s5.148-0.982,7.111-2.945l85.48-85.48c3.927-3.927,3.927-10.294,0-14.221C332.908,396.251,326.543,396.251,322.614,400.18z" fill="#16a085"/>
			<path d="M158.765,125.707c2.574,0,5.148-0.982,7.111-2.945l76.681-76.681c3.927-3.927,3.927-10.294,0-14.221     c-3.928-3.927-10.294-3.927-14.222,0l-76.681,76.681c-3.927,3.927-3.927,10.294,0,14.221     C153.617,124.725,156.19,125.707,158.765,125.707z" fill="#16a085"/>
		</g>
	</g>
</g>
<g>
</g>
<g>
</g>
<g>
</g>
<g>
</g>
<g>
</g>
<g>
</g>
<g>
</g>
<g>
</g>
<g>
</g>
<g>
</g>
<g>
</g>
<g>
</g>
<g>
</g>
<g>
</g>
<g>
</g>
</svg>
