<?xml version="1.0" encoding="iso-8859-1"?>
<!-- Generator: Adobe Illustrator 19.0.0, SVG Export Plug-In . SVG Version: 6.00 Build 0)  -->
<svg xmlns="http://www.w3.org/2000/svg" xmlns:xlink="http://www.w3.org/1999/xlink" version="1.1" id="Capa_1" x="0px" y="0px" viewBox="0 0 511.999 511.999" style="enable-background:new 0 0 511.999 511.999;" xml:space="preserve" width="512px" height="512px">
<g>
	<g>
		<path d="M255.978,94.027c-89.312,0-161.973,72.661-161.973,161.973s72.661,161.973,161.973,161.973S417.951,345.312,417.951,256    S345.29,94.027,255.978,94.027z M369.169,170.399c16.166,21.324,26.452,47.334,28.428,75.602h-95.921    c-6.733,0-12.211-5.478-12.211-12.211v-4.828c0-6.733,5.478-12.211,12.211-12.211c12.435,0,22.552-10.117,22.552-22.552    c0-13.123,10.676-23.799,23.799-23.799h21.141V170.399z M157.449,153.881c0.071,0.001,0.14,0.011,0.212,0.011h76.582    c3.956,0,7.175,3.219,7.175,7.175c0,3.956-3.218,7.175-7.175,7.175h-28.752c-13.216,0-23.967,10.751-23.967,23.967    s10.751,23.968,23.967,23.968h9.018c1.164,0,2.111,0.947,2.111,2.111s-0.947,2.111-2.111,2.111h-28.212    c-13.951,0-25.301,11.35-25.301,25.301c0,2.924-2.38,5.304-5.304,5.304h-41.593C115.423,212.938,131.798,178.638,157.449,153.881z     M255.978,397.976c-17.689,0-34.629-3.261-50.262-9.198v-0.79c0-2.429,1.976-4.403,4.404-4.403h21.926    c13.067,0,23.768-10.324,24.373-23.244h5.855c14.992,0,27.188-12.197,27.189-27.19c0-7.263-2.828-14.092-7.964-19.227    c-3.757-3.757-8.421-6.28-13.498-7.363c-2.78-8.474-10.764-14.61-20.155-14.61h-83.856c-5.522,0-9.998,4.476-9.998,9.998    s4.476,9.998,9.998,9.998h83.856c0.667,0,1.208,0.542,1.208,1.208c0,7.058,5.742,12.8,12.8,12.8h0.418    c1.922,0,3.728,0.749,5.086,2.107c1.359,1.359,2.107,3.166,2.107,5.088c0,3.965-3.227,7.192-7.193,7.192h-6.984    c-10.388,0-18.84,8.452-18.841,18.84c0,2.428-1.976,4.403-4.403,4.403h-21.926c-10.686,0-19.784,6.908-23.077,16.491    c-39.392-21.972-67.3-62.152-72.249-109.081h40.898c13.951,0,25.301-11.35,25.301-25.301c0-2.924,2.38-5.304,5.304-5.304h28.212    c12.19,0,22.107-9.917,22.107-22.107s-9.917-22.107-22.107-22.107h-9.017c-2.19,0-3.97-1.782-3.97-3.971s1.781-3.97,3.97-3.97    h28.752c14.983,0,27.171-12.189,27.171-27.171c0-14.983-12.189-27.172-27.171-27.172h-50.626    c21.203-12.614,45.948-19.872,72.36-19.872c36.401,0,69.64,13.775,94.795,36.379h-2.746c-24.149,0-43.796,19.647-43.796,43.796    c0,1.409-1.146,2.556-2.556,2.556c-17.76,0-32.208,14.449-32.208,32.208v4.828c0,17.76,14.449,32.208,32.208,32.208h95.921    C392.449,339.636,330.901,397.976,255.978,397.976z" fill="#16a085"/>
	</g>
</g>
<g>
	<g>
		<path d="M437.322,0.042c-24.634,0-46.508,12.007-60.104,30.468C314.771-3.106,240.898-9.292,173.352,13.687    c-5.228,1.779-8.024,7.458-6.246,12.686c1.778,5.226,7.457,8.021,12.686,6.245c62.239-21.172,130.295-15.494,187.835,15.439    c-3.165,8.268-4.917,17.229-4.917,26.597c0,41.141,33.471,74.613,74.613,74.613s74.613-33.471,74.613-74.613    C511.935,33.513,478.464,0.042,437.322,0.042z M473.339,115.662c-9.622,8.461-22.225,13.609-36.015,13.609    c-13.793,0-26.398-5.149-36.02-13.613v-0.09c0-4.859,3.467-9.034,8.245-9.924l6.362-1.187c5.446,4.799,12.586,7.719,20.399,7.719    h2.025c7.813,0,14.952-2.92,20.399-7.719l6.362,1.187c4.777,0.891,8.245,5.064,8.245,9.924V115.662z M425.407,81.279V64.994    c0-6.011,4.89-10.901,10.901-10.901h2.025c6.011,0,10.901,4.89,10.901,10.901v16.284c0,6.011-4.89,10.901-10.901,10.901h-2.025    C430.298,92.18,425.407,87.29,425.407,81.279z M487.056,97.182c-4.372-5.661-10.741-9.756-18.187-11.173    c0.238-1.543,0.362-3.122,0.362-4.73V64.994c0-17.037-13.861-30.898-30.898-30.898h-2.025c-17.037,0-30.898,13.861-30.898,30.898    v16.284c0,1.608,0.124,3.188,0.362,4.73c-7.445,1.417-13.813,5.51-18.185,11.17c-3.125-6.873-4.881-14.495-4.881-22.524    c0-30.115,24.501-54.616,54.616-54.616s54.616,24.501,54.616,54.616C491.938,82.685,490.182,90.308,487.056,97.182z" fill="#16a085"/>
	</g>
</g>
<g>
	<g>
		<path d="M350.177,483.497c-1.901-5.185-7.645-7.847-12.829-5.948c-63.693,23.345-133.628,18.336-192.988-13.588    c3.17-8.274,4.925-17.242,4.925-26.618c0-41.141-33.471-74.613-74.613-74.613S0.06,396.202,0.06,437.345    s33.471,74.613,74.613,74.613c24.628,0,46.498-12.001,60.094-30.454c30.686,16.482,65.069,26.68,99.912,29.572    c6.99,0.581,14.007,0.869,21.036,0.869c30.139,0,60.376-5.305,88.515-15.618C349.415,494.426,352.078,488.682,350.177,483.497z     M110.693,478.348c-9.622,8.464-22.227,13.613-36.019,13.613c-13.791,0-26.394-5.148-36.016-13.609v-0.094    c0-4.859,3.467-9.034,8.245-9.924l6.362-1.187c5.446,4.799,12.586,7.719,20.399,7.719h2.025c7.813,0,14.952-2.92,20.399-7.719    l6.362,1.187c4.777,0.891,8.245,5.064,8.245,9.924V478.348z M62.762,443.968v-16.284c0-6.011,4.89-10.901,10.901-10.901h2.025    c6.011,0,10.901,4.89,10.901,10.901v16.284c0,6.011-4.89,10.901-10.901,10.901h-2.025    C67.652,454.87,62.762,449.979,62.762,443.968z M124.407,459.869c-4.372-5.659-10.74-9.753-18.185-11.17    c0.238-1.543,0.362-3.122,0.362-4.73v-16.284c0-17.037-13.861-30.898-30.898-30.898h-2.025c-17.037,0-30.898,13.861-30.898,30.898    v16.284c0,1.608,0.124,3.187,0.362,4.73c-7.446,1.417-13.815,5.512-18.187,11.173c-3.127-6.874-4.882-14.498-4.882-22.527    c0-30.115,24.501-54.616,54.616-54.616s54.616,24.501,54.616,54.616C129.289,445.373,127.533,452.996,124.407,459.869z" fill="#16a085"/>
	</g>
</g>
<g>
	<g>
		<path d="M496.081,167.145l-0.118-0.317c-1.918-5.18-7.672-7.823-12.848-5.904c-5.178,1.918-7.821,7.67-5.903,12.849l0.118,0.317    c1.494,4.033,5.313,6.529,9.376,6.529c1.154,0,2.327-0.201,3.471-0.625C495.356,178.077,497.999,172.325,496.081,167.145z" fill="#16a085"/>
	</g>
</g>
<g>
	<g>
		<path d="M33.968,336.103c-0.008-0.024-0.05-0.14-0.059-0.164l-9.414,3.366l9.406-3.39c-1.87-5.183-7.557-7.814-12.744-5.965    c-5.188,1.852-7.88,7.613-6.046,12.808c1.45,4.106,5.307,6.674,9.428,6.674c1.104,0,2.228-0.185,3.327-0.573    C33.075,347.022,35.806,341.31,33.968,336.103z" fill="#16a085"/>
	</g>
</g>
<g>
	<g>
		<path d="M74.633,0.042c-41.141,0-74.613,33.47-74.613,74.613c0,24.637,12.01,46.514,30.475,60.109    C3.33,185.259-6.107,243.911,3.945,300.773c0.857,4.849,5.074,8.26,9.833,8.26c0.578,0,1.164-0.05,1.752-0.154    c5.437-0.961,9.066-6.148,8.105-11.586c-9.262-52.392-0.587-106.42,24.406-152.94c8.266,3.164,17.225,4.915,26.59,4.915    c41.141,0,74.613-33.471,74.613-74.613S115.774,0.042,74.633,0.042z M110.653,115.658c-9.622,8.464-22.227,13.613-36.019,13.613    c-13.791,0-26.394-5.148-36.016-13.609v-0.094c0-4.859,3.467-9.034,8.245-9.924l6.362-1.187    c5.446,4.799,12.586,7.719,20.399,7.719h2.025c7.813,0,14.952-2.92,20.399-7.719l6.362,1.187c4.777,0.891,8.245,5.064,8.245,9.924    V115.658z M62.722,81.279V64.994c0-6.011,4.89-10.901,10.901-10.901h2.025c6.011,0,10.901,4.89,10.901,10.901v16.284    c0,6.011-4.89,10.901-10.901,10.901h-2.025C67.612,92.18,62.722,87.29,62.722,81.279z M124.367,97.179    c-4.372-5.659-10.74-9.753-18.185-11.17c0.238-1.543,0.362-3.122,0.362-4.73V64.994c0-17.037-13.861-30.898-30.898-30.898h-2.025    c-17.037,0-30.898,13.861-30.898,30.898v16.284c0,1.608,0.124,3.188,0.362,4.73c-7.446,1.417-13.815,5.512-18.187,11.173    c-3.126-6.874-4.882-14.498-4.882-22.527c0-30.115,24.501-54.616,54.616-54.616s54.616,24.501,54.616,54.616    C129.249,82.683,127.493,90.306,124.367,97.179z" fill="#16a085"/>
	</g>
</g>
<g>
	<g>
		<path d="M481.457,377.246c28.671-53.247,37.53-114.928,24.899-174.536c-1.145-5.401-6.449-8.853-11.853-7.709    c-5.402,1.145-8.854,6.452-7.709,11.853c11.639,54.929,3.494,111.755-22.89,160.814c-8.251-3.151-17.192-4.894-26.538-4.894    c-41.141,0-74.613,33.471-74.613,74.613s33.471,74.613,74.613,74.613s74.613-33.471,74.613-74.613    C511.978,412.73,499.948,390.838,481.457,377.246z M473.382,478.394c-9.622,8.462-22.225,13.609-36.015,13.609    c-13.793,0.001-26.398-5.148-36.02-13.612V478.3c0-4.859,3.467-9.034,8.245-9.924l6.362-1.187    c5.446,4.799,12.586,7.719,20.399,7.719h2.025c7.813,0,14.952-2.92,20.399-7.719l6.362,1.187c4.777,0.891,8.245,5.064,8.245,9.924    V478.394z M425.449,444.011v-16.284c0-6.011,4.89-10.901,10.901-10.901h2.025c6.011,0,10.901,4.89,10.901,10.901v16.284    c0,6.011-4.89,10.901-10.901,10.901h-2.025C430.341,454.913,425.449,450.022,425.449,444.011z M487.099,459.915    c-4.372-5.661-10.741-9.755-18.187-11.173c0.238-1.543,0.362-3.122,0.362-4.73v-16.284c0-17.037-13.861-30.898-30.898-30.898    h-2.025c-17.037,0-30.898,13.861-30.898,30.898v16.284c0,1.608,0.124,3.187,0.362,4.73c-7.445,1.417-13.813,5.511-18.185,11.17    c-3.125-6.873-4.881-14.496-4.881-22.524c0-30.115,24.501-54.616,54.616-54.616s54.616,24.501,54.616,54.616    C491.981,445.417,490.225,453.041,487.099,459.915z" fill="#16a085"/>
	</g>
</g>
<g>
</g>
<g>
</g>
<g>
</g>
<g>
</g>
<g>
</g>
<g>
</g>
<g>
</g>
<g>
</g>
<g>
</g>
<g>
</g>
<g>
</g>
<g>
</g>
<g>
</g>
<g>
</g>
<g>
</g>
</svg>
