<?xml version="1.0" encoding="iso-8859-1"?>
<!-- Generator: Adobe Illustrator 19.0.0, SVG Export Plug-In . SVG Version: 6.00 Build 0)  -->
<svg xmlns="http://www.w3.org/2000/svg" xmlns:xlink="http://www.w3.org/1999/xlink" version="1.1" id="Layer_1" x="0px" y="0px" viewBox="0 0 512 512" style="enable-background:new 0 0 512 512;" xml:space="preserve" width="512px" height="512px">
<g>
	<g>
		<g>
			<path d="M449.761,0H62.239c-5.188,0-9.394,4.206-9.394,9.395v493.211c0,5.188,4.206,9.395,9.394,9.395h387.523     c5.188,0,9.394-4.206,9.394-9.395V9.395C459.156,4.206,454.95,0,449.761,0z M440.367,493.211H71.633V18.789h368.734V493.211z" fill="#16a085"/>
			<path d="M99.817,118.018h312.367c5.188,0,9.395-4.206,9.395-9.395V46.972c0-5.188-4.206-9.394-9.395-9.394H99.817     c-5.188,0-9.394,4.206-9.394,9.394v61.651C90.422,113.812,94.628,118.018,99.817,118.018z M109.211,56.367h293.578v42.862     H109.211V56.367z" fill="#16a085"/>
			<path d="M99.817,155.596h312.367c5.188,0,9.395-4.206,9.395-9.394s-4.206-9.394-9.395-9.394H99.817     c-5.188,0-9.394,4.206-9.394,9.394S94.628,155.596,99.817,155.596z" fill="#16a085"/>
			<path d="M99.817,200.22h78.895c5.188,0,9.394-4.206,9.394-9.395s-4.206-9.394-9.394-9.394H99.817     c-5.188,0-9.394,4.206-9.394,9.394S94.628,200.22,99.817,200.22z" fill="#16a085"/>
			<path d="M99.817,350.532h78.895c5.188,0,9.394-4.206,9.394-9.394V228.404c0-5.188-4.206-9.395-9.394-9.395H99.817     c-5.188,0-9.394,4.206-9.394,9.395v112.734C90.422,346.326,94.628,350.532,99.817,350.532z M109.211,237.798h60.106v93.945     h-60.106V237.798z" fill="#16a085"/>
			<path d="M99.817,425.688h78.895c5.188,0,9.394-4.206,9.394-9.394s-4.206-9.394-9.394-9.394H99.817     c-5.188,0-9.394,4.206-9.394,9.394S94.628,425.688,99.817,425.688z" fill="#16a085"/>
			<path d="M99.817,388.11h78.895c5.188,0,9.394-4.206,9.394-9.395s-4.206-9.394-9.394-9.394H99.817     c-5.188,0-9.394,4.206-9.394,9.394S94.628,388.11,99.817,388.11z" fill="#16a085"/>
			<path d="M99.817,463.266h78.895c5.188,0,9.394-4.206,9.394-9.394s-4.206-9.395-9.394-9.395H99.817     c-5.188,0-9.394,4.206-9.394,9.395S94.628,463.266,99.817,463.266z" fill="#16a085"/>
			<path d="M295.448,181.431h-78.895c-5.188,0-9.394,4.206-9.394,9.394s4.206,9.395,9.394,9.395h78.895     c5.188,0,9.395-4.206,9.395-9.395S300.636,181.431,295.448,181.431z" fill="#16a085"/>
			<path d="M295.448,256.587h-78.895c-5.188,0-9.394,4.206-9.394,9.394s4.206,9.395,9.394,9.395h78.895     c5.188,0,9.395-4.206,9.395-9.395S300.636,256.587,295.448,256.587z" fill="#16a085"/>
			<path d="M295.448,219.009h-78.895c-5.188,0-9.394,4.206-9.394,9.395s4.206,9.394,9.394,9.394h78.895     c5.188,0,9.395-4.206,9.395-9.394S300.636,219.009,295.448,219.009z" fill="#16a085"/>
			<path d="M295.448,294.165h-78.895c-5.188,0-9.394,4.206-9.394,9.394s4.206,9.394,9.394,9.394h78.895     c5.188,0,9.395-4.206,9.395-9.394S300.636,294.165,295.448,294.165z" fill="#16a085"/>
			<path d="M295.448,331.743h-78.895c-5.188,0-9.394,4.206-9.394,9.395s4.206,9.394,9.394,9.394h78.895     c5.188,0,9.395-4.206,9.395-9.394S300.636,331.743,295.448,331.743z" fill="#16a085"/>
			<path d="M295.448,369.321h-78.895c-5.188,0-9.394,4.206-9.394,9.394v75.156c0,5.188,4.206,9.394,9.394,9.394h78.895     c5.188,0,9.395-4.206,9.395-9.394v-75.156C304.842,373.527,300.636,369.321,295.448,369.321z M286.053,444.477h-60.106V388.11     h60.106V444.477z" fill="#16a085"/>
			<path d="M410.052,181.431h-78.896c-5.188,0-9.394,4.206-9.394,9.394v75.156c0,5.188,4.206,9.395,9.394,9.395h78.896     c5.188,0,9.394-4.206,9.394-9.395v-75.156C419.447,185.638,415.24,181.431,410.052,181.431z M400.658,256.587H340.55V200.22     h60.107V256.587z" fill="#16a085"/>
			<path d="M410.052,294.165h-78.896c-5.188,0-9.394,4.206-9.394,9.394s4.206,9.394,9.394,9.394h78.896     c5.188,0,9.394-4.206,9.394-9.394S415.24,294.165,410.052,294.165z" fill="#16a085"/>
			<path d="M410.052,331.743h-78.896c-5.188,0-9.394,4.206-9.394,9.395s4.206,9.394,9.394,9.394h78.896     c5.188,0,9.394-4.206,9.394-9.394S415.24,331.743,410.052,331.743z" fill="#16a085"/>
			<path d="M410.052,406.899h-78.896c-5.188,0-9.394,4.206-9.394,9.394s4.206,9.394,9.394,9.394h78.896     c5.188,0,9.394-4.206,9.394-9.394S415.24,406.899,410.052,406.899z" fill="#16a085"/>
			<path d="M410.052,369.321h-78.896c-5.188,0-9.394,4.206-9.394,9.394s4.206,9.395,9.394,9.395h78.896     c5.188,0,9.394-4.206,9.394-9.395S415.24,369.321,410.052,369.321z" fill="#16a085"/>
			<path d="M410.052,444.477h-78.896c-5.188,0-9.394,4.206-9.394,9.395s4.206,9.394,9.394,9.394h78.896     c5.188,0,9.394-4.206,9.394-9.394S415.24,444.477,410.052,444.477z" fill="#16a085"/>
		</g>
	</g>
</g>
<g>
</g>
<g>
</g>
<g>
</g>
<g>
</g>
<g>
</g>
<g>
</g>
<g>
</g>
<g>
</g>
<g>
</g>
<g>
</g>
<g>
</g>
<g>
</g>
<g>
</g>
<g>
</g>
<g>
</g>
</svg>
