<?xml version="1.0" encoding="iso-8859-1"?>
<!-- Generator: Adobe Illustrator 19.0.0, SVG Export Plug-In . SVG Version: 6.00 Build 0)  -->
<svg xmlns="http://www.w3.org/2000/svg" xmlns:xlink="http://www.w3.org/1999/xlink" version="1.1" id="Capa_1" x="0px" y="0px" viewBox="0 0 511.999 511.999" style="enable-background:new 0 0 511.999 511.999;" xml:space="preserve" width="512px" height="512px">
<g>
	<g>
		<path d="M268.834,40.37c-24.336-1.441-48.534,1.192-71.927,7.822c-5.313,1.506-8.4,7.035-6.894,12.348    c1.248,4.403,5.256,7.276,9.616,7.276c0.902,0,1.82-0.123,2.732-0.381c21.232-6.018,43.201-8.404,65.292-7.1    c5.516,0.33,10.248-3.878,10.573-9.392C278.552,45.43,274.348,40.696,268.834,40.37z" fill="#16a085"/>
	</g>
</g>
<g>
	<g>
		<path d="M315.102,48.195l-0.786-0.221c-5.322-1.479-10.833,1.638-12.311,6.96c-1.478,5.321,1.638,10.833,6.96,12.31l0.668,0.188    c0.914,0.26,1.834,0.384,2.739,0.384c4.357,0,8.364-2.87,9.614-7.268C323.496,55.235,320.414,49.705,315.102,48.195z" fill="#16a085"/>
	</g>
</g>
<g>
	<g>
		<path d="M463.052,194.327c-1.572-5.294-7.139-8.314-12.433-6.74c-5.294,1.572-8.312,7.138-6.74,12.433    c11.008,37.078,10.875,76.231-0.386,113.227c-1.608,5.282,1.371,10.869,6.654,12.478c0.971,0.296,1.951,0.437,2.916,0.437    c4.286,0,8.25-2.778,9.563-7.091C475.033,278.312,475.18,235.176,463.052,194.327z" fill="#16a085"/>
	</g>
</g>
<g>
	<g>
		<path d="M324.126,450.707c-1.564-5.297-7.127-8.317-12.423-6.758c-25.573,7.554-52.002,9.812-78.556,6.713    c-5.485-0.643-10.451,3.288-11.091,8.773c-0.64,5.486,3.288,10.452,8.774,11.092c8.472,0.988,16.93,1.481,25.36,1.481    c20.673,0,41.165-2.968,61.178-8.878C322.664,461.566,325.69,456.004,324.126,450.707z" fill="#16a085"/>
	</g>
</g>
<g>
	<g>
		<path d="M201.425,444.278l-0.542-0.157c-5.301-1.548-10.854,1.493-12.403,6.795c-1.548,5.302,1.494,10.854,6.795,12.402    l0.643,0.187c0.92,0.264,1.847,0.39,2.758,0.39c4.349,0,8.352-2.86,9.608-7.249C209.806,451.336,206.734,445.799,201.425,444.278z    " fill="#16a085"/>
	</g>
</g>
<g>
	<g>
		<path d="M69.961,317.819c-12.994-39.205-13.209-82.462-0.605-121.803c1.685-5.259-1.213-10.889-6.472-12.574    c-5.261-1.687-10.89,1.211-12.574,6.472c-13.887,43.344-13.65,91.003,0.667,134.199c1.392,4.198,5.297,6.856,9.491,6.856    c1.042,0,2.104-0.165,3.147-0.511C68.858,328.721,71.699,323.062,69.961,317.819z" fill="#16a085"/>
	</g>
</g>
<g>
	<g>
		<path d="M501.29,449.569l-7.79-7.79c-4.567-4.567-10.134-7.768-16.203-9.418l4.137-6.014c10.226-14.866,8.388-34.917-4.372-47.677    l-43.698-43.697c-3.905-3.904-10.237-3.904-14.142,0c-3.905,3.905-3.905,10.237,0,14.143l43.697,43.697    c5.941,5.941,6.797,15.277,2.036,22.199l-13.713,19.933c-3.452,1.736-6.645,4.023-9.456,6.834    c-2.844,2.844-5.153,6.079-6.896,9.577l-20.129,13.848c-6.923,4.763-16.26,3.907-22.2-2.035l-43.697-43.697    c-3.905-3.904-10.237-3.904-14.143,0c-3.905,3.905-3.905,10.237,0,14.143l43.697,43.697c7.239,7.239,16.823,10.962,26.478,10.962    c7.363,0,14.769-2.167,21.201-6.593l6.289-4.326c1.656,6.043,4.849,11.585,9.4,16.137l7.791,7.79    c6.906,6.906,16.089,10.71,25.856,10.71c9.767,0,18.95-3.804,25.856-10.71c6.907-6.906,10.71-16.089,10.71-25.855    C511.999,465.661,508.197,456.476,501.29,449.569z M487.148,487.138c-3.129,3.129-7.289,4.853-11.714,4.853    s-8.584-1.724-11.713-4.853l-7.79-7.79c-3.129-3.129-4.852-7.289-4.852-11.714s1.723-8.584,4.852-11.713    c3.129-3.129,7.289-4.853,11.714-4.853s8.584,1.724,11.714,4.853l7.79,7.79c3.129,3.129,4.852,7.289,4.852,11.714    S490.277,484.009,487.148,487.138z" fill="#16a085"/>
	</g>
</g>
<g>
	<g>
		<path d="M177.017,419.214c-3.904-3.903-10.235-3.904-14.14,0l-43.698,43.697c-5.941,5.943-15.278,6.798-22.2,2.035l-19.931-13.711    c-1.736-3.452-4.023-6.646-6.835-9.457c-2.844-2.844-6.079-5.152-9.577-6.895l-13.848-20.129    c-4.762-6.922-3.906-16.259,2.035-22.2l43.697-43.697c3.905-3.905,3.905-10.237,0-14.143c-3.905-3.904-10.237-3.904-14.143,0    L34.68,378.411c-12.759,12.76-14.597,32.812-4.37,47.679l4.326,6.289c-6.043,1.656-11.585,4.849-16.135,9.4l-7.791,7.79    C3.803,456.476,0,465.658,0,475.425c0,9.767,3.803,18.949,10.709,25.855c6.907,6.906,16.089,10.71,25.856,10.71    s18.95-3.804,25.855-10.71l7.791-7.79c4.567-4.568,7.767-10.134,9.417-16.202l6.014,4.137c6.434,4.425,13.835,6.591,21.2,6.591    c9.653,0,19.24-3.724,26.478-10.962l43.697-43.697C180.922,429.452,180.923,423.12,177.017,419.214z M56.07,479.348l-7.791,7.79    c-3.129,3.129-7.289,4.853-11.713,4.853c-4.424,0-8.585-1.724-11.714-4.853C21.723,484.009,20,479.85,20,475.425    c0-4.425,1.723-8.585,4.852-11.714l7.791-7.79c3.129-3.129,7.289-4.853,11.713-4.853s8.585,1.724,11.714,4.853    c3.128,3.129,4.852,7.288,4.852,11.713C60.922,472.059,59.199,476.219,56.07,479.348z" fill="#16a085"/>
	</g>
</g>
<g>
	<g>
		<path d="M177.276,78.366l-43.698-43.697c-12.76-12.76-32.811-14.596-47.678-4.37l-6.308,4.34c-1.62-5.919-4.74-11.509-9.38-16.149    l-7.791-7.791c-14.257-14.256-37.455-14.256-51.712,0c-14.256,14.257-14.256,37.455,0,51.712l7.791,7.792    c4.658,4.658,10.273,7.783,16.216,9.398l-4.151,6.033c-10.226,14.867-8.388,34.918,4.371,47.678l43.698,43.698    c1.953,1.952,4.512,2.929,7.071,2.929c2.559,0,5.119-0.977,7.071-2.929c3.905-3.905,3.905-10.237,0-14.143l-43.697-43.698    c-5.941-5.941-6.797-15.278-2.036-22.2l13.729-19.957c3.406-1.708,6.602-3.971,9.44-6.81c2.871-2.871,5.153-6.108,6.868-9.558    l20.156-13.867c6.923-4.762,16.26-3.905,22.201,2.035l43.697,43.697c1.953,1.953,4.512,2.929,7.071,2.929s5.119-0.976,7.071-2.929    C181.181,88.604,181.181,82.272,177.276,78.366z M56.07,56.06c-6.459,6.459-16.969,6.459-23.428,0l-7.791-7.791    c-6.458-6.458-6.458-16.968,0.001-23.427c3.23-3.23,7.472-4.844,11.714-4.844s8.484,1.615,11.713,4.844l7.791,7.791    C62.529,39.091,62.529,49.601,56.07,56.06z" fill="#16a085"/>
	</g>
</g>
<g>
	<g>
		<path d="M501.289,10.699c-14.257-14.257-37.455-14.256-51.712,0l-7.791,7.791c-4.658,4.658-7.784,10.273-9.398,16.216    l-6.033-4.151c-14.867-10.226-34.918-8.388-47.678,4.371l-43.698,43.698c-3.905,3.905-3.905,10.237,0,14.143    c1.955,1.953,4.514,2.929,7.073,2.929c2.559,0,5.119-0.976,7.071-2.929l43.698-43.698c5.94-5.941,15.278-6.797,22.2-2.036    l19.957,13.729c1.708,3.406,3.972,6.602,6.81,9.44c2.871,2.871,6.108,5.153,9.558,6.868l13.866,20.155    c4.762,6.923,3.906,16.259-2.035,22.201l-43.697,43.697c-3.905,3.905-3.905,10.237,0,14.143c1.953,1.953,4.512,2.929,7.071,2.929    s5.119-0.976,7.071-2.929l43.697-43.698c12.759-12.76,14.597-32.811,4.37-47.678l-4.34-6.308c5.919-1.62,11.509-4.74,16.149-9.38    l7.791-7.791C515.545,48.154,515.545,24.956,501.289,10.699z M487.148,48.27l-7.791,7.791c-6.459,6.459-16.969,6.458-23.427,0    c-6.459-6.46-6.459-16.97,0-23.428l7.791-7.791c3.229-3.23,7.471-4.844,11.713-4.844s8.485,1.615,11.714,4.844    C493.607,31.301,493.607,41.811,487.148,48.27z" fill="#16a085"/>
	</g>
</g>
<g>
	<g>
		<path d="M446.136,388.185l-82.9-82.9c-0.383-0.383-0.795-0.717-1.219-1.024c6.727-14.715,10.481-31.062,10.481-48.271    c0-17.244-3.771-33.623-10.523-48.361c0.415-0.302,0.817-0.63,1.192-1.004l82.902-82.9c3.905-3.905,3.905-10.237,0-14.142    c-3.905-3.905-10.236-3.905-14.143,0l-15.596,15.596L386.741,95.59l15.596-15.596c3.905-3.905,3.905-10.237,0-14.143    c-3.905-3.904-10.237-3.904-14.143,0l-82.9,82.9c-0.383,0.383-0.717,0.794-1.024,1.219c-14.715-6.726-31.062-10.481-48.271-10.481    c-17.244,0-33.623,3.771-48.361,10.523c-0.302-0.415-0.63-0.817-1.004-1.192l-82.9-82.9c-3.905-3.904-10.237-3.904-14.142,0    c-3.905,3.905-3.906,10.237,0,14.143l15.596,15.596l-29.589,29.589l-15.596-15.596c-3.905-3.904-10.237-3.904-14.143,0    c-3.905,3.905-3.905,10.237,0,14.143l82.9,82.9c0.383,0.383,0.795,0.717,1.219,1.024c-6.727,14.715-10.481,31.062-10.481,48.271    c0,17.244,3.771,33.623,10.523,48.361c-0.415,0.303-0.817,0.63-1.192,1.004l-82.9,82.9c-3.905,3.905-3.905,10.237,0,14.143    c1.953,1.952,4.512,2.929,7.071,2.929c2.559,0,5.119-0.977,7.071-2.929l15.596-15.596l29.588,29.589l-15.595,15.595    c-3.905,3.905-3.906,10.237,0,14.143c1.953,1.952,4.512,2.929,7.071,2.929s5.119-0.977,7.071-2.929l82.9-82.899    c0.383-0.383,0.717-0.795,1.025-1.22c14.715,6.726,31.062,10.481,48.271,10.481c17.244,0,33.622-3.77,48.361-10.523    c0.302,0.415,0.63,0.817,1.004,1.192l82.9,82.899c1.953,1.952,4.512,2.929,7.071,2.929s5.119-0.977,7.071-2.929    c3.905-3.905,3.905-10.237,0-14.143l-15.595-15.595l29.588-29.589l15.596,15.596c1.953,1.952,4.512,2.929,7.071,2.929    s5.119-0.977,7.071-2.929C450.041,398.423,450.041,392.091,446.136,388.185z M394.541,131.674l7.646,7.646l-50.417,50.417    c-2.076-2.992-4.288-5.882-6.629-8.663L394.541,131.674z M372.599,109.732l7.8,7.8l-49.393,49.393    c-2.834-2.39-5.782-4.647-8.837-6.763L372.599,109.732z M333.822,198.996c9.874,13.45,16.356,29.537,18.162,46.994h-63.959    c-3.068,0-5.564-2.496-5.564-5.564v-3.384c0-3.068,2.496-5.564,5.564-5.564c10.365,0,18.797-8.432,18.797-18.797    c0-7.546,6.139-13.685,13.685-13.685H333.822z M243,187.428c1.654,0,3,1.346,3,3v1.062c0,1.654-1.346,3-3,3h-23.508    c-12.544,0-22.75,10.206-22.75,22.75s10.206,22.75,22.75,22.75h2.933c1.654,0,3,1.346,3,3c0,1.654-1.346,3-3,3h-62.409    c2.358-22.8,12.689-43.266,28.146-58.562H243z M139.329,109.803l50.418,50.417c-2.993,2.077-5.883,4.289-8.664,6.629l-49.4-49.4    L139.329,109.803z M109.742,139.391l7.8-7.8l49.393,49.393c-2.39,2.834-4.647,5.782-6.763,8.837L109.742,139.391z     M117.458,380.306l-7.646-7.646l50.417-50.417c2.077,2.992,4.289,5.883,6.629,8.663L117.458,380.306z M139.401,402.249l-7.8-7.8    l49.393-49.393c2.834,2.39,5.782,4.647,8.837,6.763L139.401,402.249z M218.861,345.054c-20.934-8.762-38.146-24.696-48.548-44.715    h114.824c0.97,0,1.758,0.789,1.758,1.757v2.292c0,2.232-1.816,4.048-4.047,4.048h-5.708c-9.498,0-17.225,7.727-17.225,17.224    c0,0.976-0.793,1.77-1.769,1.77h-17.917C229.643,327.429,220.802,335.026,218.861,345.054z M256,352.49    c-5.988,0-11.85-0.553-17.539-1.602v-1.691c0-0.976,0.793-1.769,1.769-1.769h17.917c11.063,0,20.225-8.295,21.592-18.993h3.109    c13.259,0,24.046-10.787,24.047-24.045v-2.293c0-11.998-9.761-21.759-21.758-21.759H162.614    c-1.215-4.657-2.091-9.448-2.598-14.349h62.409c12.682,0,23-10.318,23-23s-10.318-23-23-23h-2.933c-1.517,0-2.75-1.234-2.75-2.75    c0-1.516,1.233-2.75,2.75-2.75H243c12.682,0,23-10.318,23-23v-1.062c0-12.682-10.318-23-23-23h-25.309    c11.75-5.103,24.704-7.938,38.309-7.938c22.094,0,42.474,7.469,58.759,20.008c-15.469,2.672-27.363,15.92-27.917,32.008    c-13.549,0.621-24.381,11.838-24.381,25.537v3.384c0,14.096,11.468,25.564,25.564,25.564h63.959    C346.965,314.519,305.834,352.49,256,352.49z M372.67,402.178l-50.418-50.417c2.993-2.077,5.883-4.289,8.664-6.629l49.4,49.4    L372.67,402.178z M394.458,380.39l-49.393-49.393c2.39-2.833,4.647-5.782,6.763-8.836l50.43,50.429L394.458,380.39z" fill="#16a085"/>
	</g>
</g>
<g>
</g>
<g>
</g>
<g>
</g>
<g>
</g>
<g>
</g>
<g>
</g>
<g>
</g>
<g>
</g>
<g>
</g>
<g>
</g>
<g>
</g>
<g>
</g>
<g>
</g>
<g>
</g>
<g>
</g>
</svg>
