<?xml version="1.0" encoding="iso-8859-1"?>
<!-- Generator: Adobe Illustrator 19.0.0, SVG Export Plug-In . SVG Version: 6.00 Build 0)  -->
<svg xmlns="http://www.w3.org/2000/svg" xmlns:xlink="http://www.w3.org/1999/xlink" version="1.1" id="Layer_1" x="0px" y="0px" viewBox="0 0 512.001 512.001" style="enable-background:new 0 0 512.001 512.001;" xml:space="preserve" width="512px" height="512px">
<g>
	<g>
		<path d="M508.986,88.559L423.443,3.016c-4.02-4.02-10.539-4.02-14.559,0L238.727,173.173L113.315,47.761    c-16.786-16.787-41.486-17.406-57.452-1.439L21.617,80.568c-16.558,16.559-16.82,43.24-0.584,59.477l125.411,125.411    L3.016,408.884c-4.022,4.02-4.022,10.539,0,14.559l85.541,85.541c2.01,2.01,4.645,3.015,7.28,3.015s5.27-1.005,7.28-3.015    l143.427-143.427l96.031,96.031c0.033,0.034,0.07,0.05,0.103,0.075c1.069,1.044,2.355,1.872,3.813,2.376l120.566,41.67    c1.1,0.38,2.235,0.565,3.362,0.565c2.706,0,5.358-1.068,7.324-3.058c2.786-2.818,3.706-6.984,2.368-10.715L437.27,373.108    c-0.498-1.387-1.291-2.615-2.282-3.646c-0.044-0.052-0.079-0.107-0.129-0.157l-96.031-96.031l170.157-170.155    C513.006,99.098,513.006,92.58,508.986,88.559z M35.592,125.484c-8.069-8.069-7.8-21.971,0.586-30.357l34.246-34.246    c3.844-3.844,8.31-5.47,12.738-5.47c5.74,0,11.418,2.733,15.594,6.908l31.005,31.005L66.598,156.49L35.592,125.484z     M210.501,372.483l-33.671-33.671c-4.019-4.02-10.538-4.02-14.559,0c-4.022,4.02-4.022,10.539,0,14.559l33.671,33.671    L174.1,408.884l-15.471-15.471c-4.02-4.02-10.539-4.02-14.559,0c-4.022,4.02-4.022,10.539,0,14.559l15.47,15.471L137.7,445.284    l-33.671-33.671c-4.02-4.02-10.539-4.02-14.559,0c-4.022,4.02-4.022,10.539,0,14.559l33.671,33.671l-27.3,27.3l-70.983-70.979    l136.147-136.147l70.981,70.981L210.501,372.483z M81.159,171.05l23.959-23.959l268.697,268.697l-23.959,23.959L81.159,171.05z     M453.473,479.229l-84.7-29.276l26.766-26.766c0.04-0.039,0.084-0.072,0.124-0.112c0.04-0.04,0.073-0.084,0.112-0.125l27.6-27.6    L453.473,479.229z M413.019,376.586l-24.643,24.643L119.679,132.531l24.643-24.643L413.019,376.586z M465.305,117.679    l-15.471-15.471c-4.02-4.02-10.539-4.02-14.559,0c-4.022,4.02-4.022,10.539,0,14.559l15.471,15.471l-21.841,21.841l-33.671-33.671    c-4.02-4.02-10.539-4.02-14.559,0c-4.022,4.02-4.022,10.539,0,14.559l33.671,33.671l-21.841,21.841l-15.471-15.47    c-4.019-4.02-10.538-4.02-14.559,0c-4.02,4.02-4.022,10.539,0,14.559l15.47,15.471l-21.841,21.841l-33.671-33.671    c-4.02-4.02-10.539-4.02-14.559,0c-4.022,4.02-4.022,10.539,0,14.559l33.671,33.671l-17.275,17.275l-70.981-70.981L416.164,24.857    l70.981,70.981L465.305,117.679z" fill="#16a085"/>
	</g>
</g>
<g>
</g>
<g>
</g>
<g>
</g>
<g>
</g>
<g>
</g>
<g>
</g>
<g>
</g>
<g>
</g>
<g>
</g>
<g>
</g>
<g>
</g>
<g>
</g>
<g>
</g>
<g>
</g>
<g>
</g>
</svg>
