<?xml version="1.0" encoding="iso-8859-1"?>
<!-- Generator: Adobe Illustrator 19.0.0, SVG Export Plug-In . SVG Version: 6.00 Build 0)  -->
<svg xmlns="http://www.w3.org/2000/svg" xmlns:xlink="http://www.w3.org/1999/xlink" version="1.1" id="Layer_1" x="0px" y="0px" viewBox="0 0 512 512" style="enable-background:new 0 0 512 512;" xml:space="preserve" width="512px" height="512px">
<g>
	<g>
		<g>
			<path d="M296.667,105.333c0-5.891-4.776-10.667-10.667-10.667h-60c-5.891,0-10.667,4.776-10.667,10.667     c0,5.891,4.776,10.667,10.667,10.667h19.333v53.333c0,5.891,4.776,10.667,10.667,10.667s10.667-4.776,10.667-10.667V116H286     C291.891,116,296.667,111.224,296.667,105.333z" fill="#16a085"/>
			<path d="M326,49.333h-30.667c-5.891,0-10.667,4.776-10.667,10.667s4.776,10.667,10.667,10.667h20V92     c0,5.891,4.776,10.667,10.667,10.667S336.667,97.891,336.667,92V60C336.667,54.109,331.891,49.333,326,49.333z" fill="#16a085"/>
			<path d="M184.667,102.667c5.891,0,10.667-4.776,10.667-10.667V70.667h20C221.224,70.667,226,65.891,226,60     s-4.776-10.667-10.667-10.667h-30.667C178.776,49.333,174,54.109,174,60v32C174,97.891,178.776,102.667,184.667,102.667z" fill="#16a085"/>
			<path d="M215.333,193.333h-20V172c0-5.891-4.776-10.667-10.667-10.667c-5.891,0-10.667,4.776-10.667,10.667v32     c0,5.891,4.776,10.667,10.667,10.667h30.667c5.891,0,10.667-4.776,10.667-10.667S221.224,193.333,215.333,193.333z" fill="#16a085"/>
			<path d="M326,161.333c-5.891,0-10.667,4.776-10.667,10.667v21.333h-20c-5.891,0-10.667,4.776-10.667,10.667     s4.776,10.667,10.667,10.667H326c5.891,0,10.667-4.776,10.667-10.667v-32C336.667,166.109,331.891,161.333,326,161.333z" fill="#16a085"/>
			<path d="M444.667,245.333h-25.333V168h20v21.333c0,5.891,4.776,10.667,10.667,10.667c5.891,0,10.667-4.776,10.667-10.667v-64     c0-5.891-4.776-10.667-10.667-10.667c-5.891,0-10.667,4.776-10.667,10.667v21.333h-20v-136C419.333,4.776,414.557,0,408.667,0     H103.333c-5.891,0-10.667,4.776-10.667,10.667v136H74v-21.333c0-5.891-4.776-10.667-10.667-10.667     c-5.891,0-10.667,4.776-10.667,10.667v64c0,5.891,4.776,10.667,10.667,10.667C69.224,200,74,195.224,74,189.333V168h18.667     v77.333H67.333c-25.732,0-46.667,20.935-46.667,46.667v173.333c0,25.732,20.935,46.667,46.667,46.667h377.333     c25.732,0,46.667-20.935,46.667-46.667V292C491.333,266.268,470.399,245.333,444.667,245.333z M114,21.333h284v224H114V21.333z      M339.365,266.667C334.141,286.839,313.993,296,294,296h-76c-19.993,0-40.141-9.161-45.365-29.333H339.365z M470,465.333     c0,13.969-11.364,25.333-25.333,25.333H67.333C53.364,490.667,42,479.303,42,465.333V292c0-13.969,11.364-25.333,25.333-25.333     h36h47.56c2.309,13.727,9.099,25.805,19.708,34.711c12.259,10.289,29.092,15.956,47.399,15.956h76     c18.307,0,35.139-5.667,47.399-15.956c10.611-8.907,17.4-20.984,19.708-34.711h47.56h36C458.636,266.667,470,278.031,470,292     V465.333z" fill="#16a085"/>
			<path d="M145.333,368h221.333c5.891,0,10.667-4.776,10.667-10.667c0-5.891-4.776-10.667-10.667-10.667H145.333     c-5.891,0-10.667,4.776-10.667,10.667C134.667,363.224,139.443,368,145.333,368z" fill="#16a085"/>
			<path d="M366.667,432H145.333c-5.891,0-10.667,4.776-10.667,10.667s4.776,10.667,10.667,10.667h221.333     c5.891,0,10.667-4.776,10.667-10.667S372.557,432,366.667,432z" fill="#16a085"/>
			<path d="M404.667,389.333H107.333c-5.891,0-10.667,4.776-10.667,10.667c0,5.891,4.776,10.667,10.667,10.667h297.333     c5.891,0,10.667-4.776,10.667-10.667C415.333,394.109,410.557,389.333,404.667,389.333z" fill="#16a085"/>
		</g>
	</g>
</g>
<g>
</g>
<g>
</g>
<g>
</g>
<g>
</g>
<g>
</g>
<g>
</g>
<g>
</g>
<g>
</g>
<g>
</g>
<g>
</g>
<g>
</g>
<g>
</g>
<g>
</g>
<g>
</g>
<g>
</g>
</svg>
