<svg viewBox="0 0 512 512" xmlns="http://www.w3.org/2000/svg"><path d="m462.25 202c-230.265625 0-80.300781 0-412 0-22.089844 0-40 17.910156-40 40v140c0 22.089844 17.910156 40 40 40h412c22.089844 0 40-17.910156 40-40 0-19.96875 0-120.128906 0-140 0-22.089844-17.910156-40-40-40zm0 0" fill="#ff6c6c"/><path d="m426.25 382v40h-50v-60h30c11.050781 0 20 8.949219 20 20zm0 0" fill="#3a5361"/><path d="m426.25 130v72h-50v-92h30c11.050781 0 20 8.949219 20 20zm0 0" fill="#3a5361"/><path d="m376.25 502h-240c0-19.917969 0-120.050781 0-140h240zm0 0" fill="#fff"/><path d="m287.96875 10h-131.71875c-11.050781 0-20 8.949219-20 20v172h240v-103.71875zm0 0" fill="#fff"/><path d="m374.449219 90h-78.199219v-78.199219c2.171875.980469 4.148438 2.347657 5.859375 4.058594l68.28125 68.28125c1.710937 1.710937 3.078125 3.6875 4.058594 5.859375zm0 0" fill="#f6d465"/><path d="m176.25 242c11.050781 0 20 8.949219 20 20s-8.949219 20-20 20-20-8.949219-20-20 8.949219-20 20-20zm0 0" fill="#f6d465"/><path d="m136.25 362v60h-50v-40c0-11.050781 8.949219-20 20-20zm0 0" fill="#3a5361"/><path d="m136.25 110v92h-50v-72c0-11.050781 8.949219-20 20-20zm0 0" fill="#3a5361"/><path d="m96.25 242c11.050781 0 20 8.949219 20 20s-8.949219 20-20 20-20-8.949219-20-20 8.949219-20 20-20zm0 0" fill="#f6d465"/><path d="m336 272c5.519531 0 10-4.480469 10-10s-4.480469-10-10-10-10 4.480469-10 10 4.480469 10 10 10zm0 0"/><path d="m462 192h-26v-62c0-16.542969-13.457031-30-30-30h-20v-1.71875c0-7.964844-3.214844-15.636719-8.789062-21.214844l-68.277344-68.277344c-5.46875-5.464843-13.105469-8.789062-21.214844-8.789062h-131.71875c-16.542969 0-30 13.457031-30 30v70h-20c-16.542969 0-30 13.457031-30 30v62h-26c-27.570312 0-50 22.429688-50 50v140c0 27.570312 22.429688 50 50 50h76v70c0 5.523438 4.476562 10 10 10h240c5.523438 0 10-4.476562 10-10v-70h76c27.570312 0 50-22.429688 50-50v-140c0-27.570312-22.429688-50-50-50zm-56-72c5.515625 0 10 4.484375 10 10v62h-30v-72zm-54.144531-40h-45.855469v-45.855469zm-205.855469-50c0-5.515625 4.484375-10 10-10h130v70c0 5.523438 4.476562 10 10 10h70v92h-220zm-50 100c0-5.515625 4.484375-10 10-10h20v72h-30zm-46 82h412c16.542969 0 30 13.457031 30 30v70h-472v-70c0-16.542969 13.457031-30 30-30zm46 200v-30c0-5.515625 4.484375-10 10-10h20v40zm270 80h-220v-120h220zm20-120h20c5.515625 0 10 4.484375 10 10v30h-30zm76 40h-26v-30c0-16.542969-13.457031-30-30-30h-300c-16.542969 0-30 13.457031-30 30v30h-26c-16.542969 0-30-13.457031-30-30v-50h472v50c0 16.542969-13.457031 30-30 30zm0 0"/><path d="m96 292c16.542969 0 30-13.457031 30-30s-13.457031-30-30-30-30 13.457031-30 30 13.457031 30 30 30zm0-40c5.515625 0 10 4.484375 10 10s-4.484375 10-10 10-10-4.484375-10-10 4.484375-10 10-10zm0 0"/><path d="m176 292c16.542969 0 30-13.457031 30-30s-13.457031-30-30-30-30 13.457031-30 30 13.457031 30 30 30zm0-40c5.515625 0 10 4.484375 10 10s-4.484375 10-10 10-10-4.484375-10-10 4.484375-10 10-10zm0 0"/><path d="m376 272h60c5.523438 0 10-4.476562 10-10s-4.476562-10-10-10h-60c-5.523438 0-10 4.476562-10 10s4.476562 10 10 10zm0 0"/><path d="m316 442h-120c-5.523438 0-10 4.476562-10 10s4.476562 10 10 10h120c5.523438 0 10-4.476562 10-10s-4.476562-10-10-10zm0 0"/><path d="m316 402h-120c-5.523438 0-10 4.476562-10 10s4.476562 10 10 10h120c5.523438 0 10-4.476562 10-10s-4.476562-10-10-10zm0 0"/></svg>