<?xml version="1.0" encoding="iso-8859-1"?>
<!-- Generator: Adobe Illustrator 19.0.0, SVG Export Plug-In . SVG Version: 6.00 Build 0)  -->
<svg xmlns="http://www.w3.org/2000/svg" xmlns:xlink="http://www.w3.org/1999/xlink" version="1.1" id="Capa_1" x="0px" y="0px" viewBox="0 0 512.001 512.001" style="enable-background:new 0 0 512.001 512.001;" xml:space="preserve" width="512px" height="512px">
<g>
	<g>
		<path d="M206.287,183.363c-1.86-1.86-4.439-2.93-7.069-2.93c-2.63,0-5.209,1.07-7.069,2.93c-1.86,1.87-2.93,4.439-2.93,7.079    c0,2.63,1.07,5.199,2.93,7.059c1.86,1.87,4.439,2.93,7.069,2.93c2.63,0,5.209-1.06,7.069-2.93c1.86-1.85,2.93-4.429,2.93-7.059    C209.217,187.802,208.147,185.222,206.287,183.363z" fill="#16a085"/>
	</g>
</g>
<g>
	<g>
		<path d="M266.618,183.362c-1.86-1.86-4.439-2.93-7.069-2.93s-5.209,1.07-7.069,2.93c-1.86,1.86-2.93,4.439-2.93,7.079    c0,2.63,1.07,5.199,2.93,7.059c1.86,1.87,4.439,2.93,7.069,2.93c2.64,0,5.209-1.06,7.069-2.93c1.86-1.86,2.93-4.429,2.93-7.059    C269.547,187.802,268.478,185.232,266.618,183.362z" fill="#16a085"/>
	</g>
</g>
<g>
	<g>
		<path d="M247.532,213.738c-3.904-3.904-10.235-3.904-14.141,0c-2.287,2.288-6.009,2.288-8.296,0    c-3.904-3.904-10.235-3.904-14.141,0c-3.904,3.904-3.904,10.235,0,14.141c5.042,5.041,11.665,7.563,18.288,7.563    c6.624,0,13.247-2.521,18.289-7.563C251.436,223.974,251.436,217.643,247.532,213.738z" fill="#16a085"/>
	</g>
</g>
<g>
	<g>
		<path d="M357.932,469.892l-0.302-0.29c-3.967-3.841-10.297-3.737-14.138,0.231c-3.84,3.968-3.736,10.298,0.232,14.138l0.335,0.324    c1.94,1.869,4.438,2.798,6.936,2.798c2.622,0,5.239-1.025,7.202-3.063C362.028,480.052,361.909,473.723,357.932,469.892z" fill="#16a085"/>
	</g>
</g>
<g>
	<g>
		<path d="M440.221,317.555c13.391-32.014,19.382-66.984,17.361-101.842c-2.258-38.965-14.486-76.869-35.363-109.615    c-2.969-4.656-9.15-6.024-13.806-3.056c-4.656,2.969-6.024,9.15-3.055,13.806c37.386,58.641,42.812,133.62,14.63,197.111    c-2.372-0.171-4.765-0.262-7.18-0.262c-16.662,0-32.373,4.137-46.172,11.429c-10.874-19.72-29.895-33.563-52.438-37.73    l-32.088-5.933c-8.096-1.497-13.972-8.559-13.972-16.791v-1.595c24.801-13.741,41.636-40.18,41.636-70.485v-46.937    c0-44.405-36.126-80.531-80.531-80.531s-80.531,36.127-80.531,80.531v46.937c0,30.298,16.826,56.731,41.618,70.475v1.605    c0,8.233-5.876,15.296-13.971,16.792l-32.073,5.93c-35.865,6.632-61.895,37.917-61.895,74.389v16.143    c-0.383-0.377-0.77-0.748-1.151-1.128c-39.469-39.469-61.205-91.945-61.205-147.762S41.773,120.741,81.242,81.273    c67.368-67.368,171.682-80.708,253.67-32.441c4.758,2.802,10.887,1.214,13.689-3.543c2.802-4.758,1.215-10.887-3.543-13.689    C255.212-21.292,140.913-6.679,67.101,67.133C23.856,110.378,0.039,167.878,0.039,229.036c0,61.159,23.816,118.658,67.062,161.903    c43.9,43.899,102.635,67.05,162.16,67.05c29.809,0,59.816-5.824,88.255-17.74c0.673,2.342,1.413,4.667,2.261,6.962    c1.914,5.179,7.663,7.83,12.844,5.913c5.18-1.913,7.828-7.664,5.914-12.844c-3.238-8.764-4.879-17.991-4.879-27.43    c0-43.646,35.509-79.155,79.155-79.155c43.645,0,79.155,35.509,79.155,79.155c0,43.645-35.509,79.154-79.155,79.154    c-7.936,0-15.765-1.168-23.269-3.472c-5.278-1.619-10.871,1.346-12.492,6.624c-1.621,5.278,1.345,10.871,6.624,12.492    c9.409,2.889,19.211,4.353,29.139,4.353c54.673,0,99.152-44.478,99.152-99.151C511.961,367.683,481.603,329.477,440.221,317.555z     M229.244,85.122c33.213,0,60.265,26.89,60.532,60.042l-32.118-18.87c-4.211-2.474-9.592-1.544-12.728,2.199    c-12.858,15.344-31.713,24.143-51.732,24.143H168.71v-3.861v-3.119h0C168.71,112.277,195.866,85.122,229.244,85.122z     M168.71,192.593v-19.959h24.487c23.086,0,44.977-9.027,61.264-25.024l35.317,20.748v24.236c0,33.378-27.156,60.534-60.534,60.534    C195.866,253.127,168.71,225.972,168.71,192.593z M212.378,271.333c5.442,1.165,11.081,1.791,16.866,1.791    c5.914,0,11.675-0.659,17.23-1.875l-17.09,17.09L212.378,271.333z M241.528,384.475l-12.141,13.817l-12.147-13.819l12.142-46.16    L241.528,384.475z M313.658,412.849c0,2.403,0.108,4.792,0.278,7.172c-70.082,31.163-151.365,21.075-211.547-24.75v-33.487    c0-26.831,19.15-49.846,45.534-54.726l32.073-5.93c8.639-1.597,16.109-6.118,21.477-12.421l16.057,16.057l-20.982,79.769    c-0.847,3.218-0.037,6.645,2.16,9.145l23.172,26.361c1.899,2.16,4.635,3.396,7.511,3.396s5.612-1.239,7.51-3.398l23.163-26.361    c2.196-2.499,3.005-5.927,2.159-9.145l-20.988-79.761l15.904-15.904c5.358,6.219,12.773,10.677,21.34,12.26l32.088,5.933    c17.128,3.167,31.471,13.942,39.325,29.216C327.781,354.476,313.658,382.044,313.658,412.849z" fill="#16a085"/>
	</g>
</g>
<g>
	<g>
		<path d="M447.971,402.851h-25.163v-25.163c0-5.521-4.476-9.998-9.998-9.998c-5.522,0-9.998,4.477-9.998,9.998v25.163h-25.163    c-5.522,0-9.998,4.477-9.998,9.998c0,5.521,4.476,9.998,9.998,9.998h25.163v25.162c0,5.521,4.476,9.998,9.998,9.998    c5.522,0,9.998-4.477,9.998-9.998v-25.162h25.163c5.522,0,9.998-4.477,9.998-9.998    C457.97,407.328,453.493,402.851,447.971,402.851z" fill="#16a085"/>
	</g>
</g>
<g>
	<g>
		<path d="M391.297,67.525l-0.39-0.391c-3.904-3.904-10.236-3.904-14.14,0c-3.904,3.904-3.904,10.235,0,14.14l0.362,0.363    c1.954,1.961,4.518,2.943,7.084,2.943c2.553,0,5.105-0.971,7.056-2.915C395.181,77.767,395.193,71.437,391.297,67.525z" fill="#16a085"/>
	</g>
</g>
<g>
</g>
<g>
</g>
<g>
</g>
<g>
</g>
<g>
</g>
<g>
</g>
<g>
</g>
<g>
</g>
<g>
</g>
<g>
</g>
<g>
</g>
<g>
</g>
<g>
</g>
<g>
</g>
<g>
</g>
</svg>
