<?xml version="1.0" encoding="iso-8859-1"?>
<!-- Generator: Adobe Illustrator 19.0.0, SVG Export Plug-In . SVG Version: 6.00 Build 0)  -->
<svg xmlns="http://www.w3.org/2000/svg" xmlns:xlink="http://www.w3.org/1999/xlink" version="1.1" id="Capa_1" x="0px" y="0px" viewBox="0 0 512 512" style="enable-background:new 0 0 512 512;" xml:space="preserve" width="512px" height="512px">
<g>
	<g>
		<path d="M502,108h-59.47c-5.522,0-10,4.477-10,10v19.763H328.797c-5.522,0-10,4.477-10,10s4.478,10,10,10H432.53v19.763    c0,5.523,4.478,10,10,10h19.734V220c0,5.523,4.478,10,10,10c5.522,0,10-4.477,10-10v-32.475H502c5.522,0,10-4.477,10-10V118    C512,112.477,507.522,108,502,108z M492,167.525h-39.47V128H492V167.525z" fill="#16a085"/>
	</g>
</g>
<g>
	<g>
		<path d="M289.7,140.69c-1.86-1.86-4.44-2.93-7.07-2.93c-2.64,0-5.21,1.07-7.07,2.93c-1.87,1.86-2.93,4.44-2.93,7.07    c0,2.64,1.06,5.21,2.93,7.07c1.86,1.87,4.431,2.93,7.07,2.93c2.63,0,5.21-1.06,7.07-2.93c1.859-1.86,2.93-4.43,2.93-7.07    C292.63,145.13,291.56,142.55,289.7,140.69z" fill="#16a085"/>
	</g>
</g>
<g>
	<g>
		<path d="M234.025,137.763H79.47V118c0-5.523-4.478-10-10-10H10c-5.522,0-10,4.477-10,10v59.525c0,5.523,4.478,10,10,10h19.735V220    c0,5.523,4.478,10,10,10c5.522,0,10-4.477,10-10v-32.475H69.47c5.522,0,10-4.477,10-10v-19.763h154.555v0.001    c5.522,0,10-4.477,10-10S239.547,137.763,234.025,137.763z M59.47,167.525H20V128h39.47V167.525z" fill="#16a085"/>
	</g>
</g>
<g>
	<g>
		<path d="M502,432.475h-19.735V394c0-5.522-4.478-10-10-10c-5.522,0-10,4.478-10,10v38.475H442.53c-5.522,0-10,4.478-10,10v19.763    H155c-5.522,0-10,4.478-10,10c0,5.522,4.478,10,10,10h277.53V502c0,5.522,4.478,10,10,10H502c5.522,0,10-4.478,10-10v-59.525    C512,436.952,507.522,432.475,502,432.475z M492,492h-39.47v-39.525H492V492z" fill="#16a085"/>
	</g>
</g>
<g>
	<g>
		<path d="M69.47,432.475H49.735V394c0-5.522-4.478-10-10-10c-5.522,0-10,4.478-10,10v38.475H10c-5.522,0-10,4.478-10,10V502    c0,5.522,4.478,10,10,10h59.47c5.522,0,10-4.478,10-10v-59.525C79.47,436.952,74.992,432.475,69.47,432.475z M59.47,492H20    v-39.525h39.47V492z" fill="#16a085"/>
	</g>
</g>
<g>
	<g>
		<path d="M124.569,465.17c-1.859-1.87-4.439-2.93-7.069-2.93s-5.21,1.06-7.07,2.93c-1.86,1.86-2.93,4.43-2.93,7.07    c0,2.63,1.069,5.21,2.93,7.069c1.86,1.86,4.44,2.931,7.07,2.931s5.21-1.07,7.069-2.931c1.86-1.87,2.931-4.439,2.931-7.069    C127.5,469.609,126.43,467.03,124.569,465.17z" fill="#16a085"/>
	</g>
</g>
<g>
	<g>
		<path d="M68.857,334.07H57.682c-4.382,0-7.946-3.564-7.946-7.946v-34.051c-0.001-4.382,3.564-7.946,7.946-7.946h11.175    c5.522,0,10-4.478,10-10c0-5.522-4.478-10-10-10H57.682c-15.409,0-27.946,12.537-27.946,27.946v34.051    c0,15.409,12.537,27.946,27.946,27.946h11.175c5.522,0,10-4.478,10-10C78.857,338.548,74.379,334.07,68.857,334.07z" fill="#16a085"/>
	</g>
</g>
<g>
	<g>
		<path d="M117.5,264.127c-16.542,0-30,13.458-30,30v32c0,16.542,13.458,30,30,30s30-13.458,30-30v-32    C147.5,277.585,134.042,264.127,117.5,264.127z M127.5,326.127c0,5.514-4.486,10-10,10s-10-4.486-10-10v-32    c0-5.514,4.486-10,10-10s10,4.486,10,10V326.127z" fill="#16a085"/>
	</g>
</g>
<g>
	<g>
		<path d="M210.669,264.128c-5.522,0-10,4.476-10,9.999v33.409L179.41,269.27c-2.213-3.983-6.837-5.965-11.25-4.824    c-4.411,1.144-7.491,5.124-7.491,9.681v72c0,5.522,4.478,10,10,10c5.522,0,10-4.478,10-10v-33.409l21.259,38.266    c1.794,3.229,5.174,5.145,8.74,5.145c0.832,0,1.675-0.104,2.51-0.32c4.411-1.144,7.491-5.124,7.491-9.681v-72    C220.669,268.606,216.191,264.128,210.669,264.128z" fill="#16a085"/>
	</g>
</g>
<g>
	<g>
		<path d="M424,264.128c-5.522,0-10,4.478-10,10v33.409l-21.259-38.266c-2.212-3.983-6.836-5.965-11.25-4.824    c-4.411,1.144-7.491,5.124-7.491,9.681v72c0,5.522,4.478,10,10,10c5.522,0,10-4.479,10-10.001v-33.409l21.259,38.266    c1.794,3.229,5.174,5.145,8.74,5.145c0.832,0,1.675-0.104,2.51-0.32c4.411-1.144,7.491-5.124,7.491-9.681v-72    C434,268.606,429.522,264.128,424,264.128z" fill="#16a085"/>
	</g>
</g>
<g>
	<g>
		<path d="M282.627,264.127h-35c-5.522,0-10,4.478-10,10c0,5.522,4.478,10,10,10h7.5v62c0,5.522,4.477,10,10,10    c5.522,0,10-4.478,10-10v-62h7.5c5.522,0,10-4.478,10-10C292.627,268.605,288.149,264.127,282.627,264.127z" fill="#16a085"/>
	</g>
</g>
<g>
	<g>
		<path d="M489.765,264.127h-35c-5.522,0-10,4.478-10,10c0,5.522,4.478,10,10,10h7.5v62c0,5.522,4.477,10,10,10    c5.522,0,10-4.478,10-10v-62h7.5c5.522,0,10-4.478,10-10C499.765,268.605,495.287,264.127,489.765,264.127z" fill="#16a085"/>
	</g>
</g>
<g>
	<g>
		<path d="M346.201,336.127h-21.297v-16h11.771c5.522,0,10-4.478,10-10c0-5.522-4.478-10-10-10h-11.771v-16h21.297    c5.522,0,10-4.478,10-10c0-5.522-4.478-10-10-10h-31.297c-5.522,0-10,4.478-10,10v72c0,5.522,4.478,10,10,10h31.297    c5.522,0,10-4.478,10-10C356.201,340.605,351.723,336.127,346.201,336.127z" fill="#16a085"/>
	</g>
</g>
<g>
	<g>
		<path d="M434.124,0H135.505c-1.408,0-2.8,0.297-4.085,0.873l-71.505,32C56.316,34.483,54,38.058,54,42s2.316,7.517,5.915,9.127    l71.505,32c1.285,0.575,2.677,0.873,4.085,0.873h298.619C447.289,84,458,73.289,458,60.124V23.876C458,10.711,447.289,0,434.124,0    z M125.505,58.569L88.48,42l37.025-16.569V58.569z M391.586,64H145.505V20h246.081V64z M438,60.124    c0,2.137-1.739,3.876-3.876,3.876h-22.538V20h22.538c2.137,0,3.876,1.739,3.876,3.876V60.124z" fill="#16a085"/>
	</g>
</g>
<g>
</g>
<g>
</g>
<g>
</g>
<g>
</g>
<g>
</g>
<g>
</g>
<g>
</g>
<g>
</g>
<g>
</g>
<g>
</g>
<g>
</g>
<g>
</g>
<g>
</g>
<g>
</g>
<g>
</g>
</svg>
