<?xml version="1.0" encoding="iso-8859-1"?>
<!-- Generator: Adobe Illustrator 19.0.0, SVG Export Plug-In . SVG Version: 6.00 Build 0)  -->
<svg xmlns="http://www.w3.org/2000/svg" xmlns:xlink="http://www.w3.org/1999/xlink" version="1.1" id="Capa_1" x="0px" y="0px" viewBox="0 0 354.4 354.4" style="enable-background:new 0 0 354.4 354.4;" xml:space="preserve" width="512px" height="512px">
<g>
	<g>
		<g>
			<path d="M177.6,130.8c-14.4,0-25.6,11.6-25.6,25.6c0,14.4,11.6,25.6,25.6,25.6c14.4,0,25.6-11.6,25.6-25.6     C203.2,142,191.6,130.8,177.6,130.8z M177.6,172c-8.4-0.4-15.2-7.2-15.2-15.6c0-8.4,6.8-15.2,15.2-15.2c8.4,0,15.2,6.8,15.2,15.2     C192.8,164.8,186,172,177.6,172z" fill="#16a085"/>
			<path d="M177.6,104.8c-28.4,0-52,23.2-52,51.6c0,30.4,46,88.8,48,91.2l4,5.2l4-5.2c2-2.8,48-62.4,48-91.2     C229.6,128,206.4,104.8,177.6,104.8z M177.6,236c-14.4-19.2-41.2-59.2-41.2-79.6c-0.4-22.8,18.4-41.6,41.2-41.6     s41.6,18.4,41.6,41.6C219.2,175.6,192.4,216.4,177.6,236z" fill="#16a085"/>
			<path d="M349.2,172h-20C326.4,92,262,27.6,182.4,25.2v-20c0-2.8-2.4-5.2-5.2-5.2c-2.8,0-5.2,2.4-5.2,5.2v20     C92,28,27.6,92.4,25.2,172h-20c-2.8,0-5.2,2.4-5.2,5.2c0.4,2.8,2.4,5.2,5.2,5.2h20c2.8,80,67.2,144.4,146.8,146.8v20     c0,2.8,2.4,5.2,5.2,5.2c2.8,0,5.2-2.4,5.2-5.2v-20c80-2.8,144.4-67.2,146.8-146.8h20c2.8,0,5.2-2.4,5.2-5.2S352,172,349.2,172z      M182.4,35.2C256.8,38,316.8,98,319.2,172h-20.8c-2.8-62.8-53.2-113.2-116-116V35.2z M172.4,35.6v20.8     c-62.8,2.8-113.2,53.2-116,116H35.6C38.4,98,98.4,38,172.4,35.6z M172.8,319.2C98.4,316.4,38.4,256.4,36,182.4h20.8     c2.8,62.8,53.2,113.2,116,116V319.2z M177.6,257.6c-2.8,0-5.2,2.4-5.2,5.2v24.8c-56.8-2.4-102.8-48.4-105.2-105.2H92     c2.8,0,5.2-2.4,5.2-5.2S94.8,172,92,172H67.2c2.4-56.8,48.4-102.8,105.2-105.2v24.8c0,2.8,2.4,5.2,5.2,5.2s5.2-2.4,5.2-5.2V66.8     C239.6,69.2,285.6,115.2,288,172h-24.8c-2.8,0-5.2,2.4-5.2,5.2s2.4,5.2,5.2,5.2H288c-2.4,56.8-48.4,102.8-105.2,105.2v-24.8     C182.8,260,180.4,257.6,177.6,257.6z M182.8,318.8V298c62.8-2.8,113.2-53.2,116-116h20.8C316.8,256.4,256.8,316.4,182.8,318.8z" fill="#16a085"/>
		</g>
	</g>
</g>
<g>
</g>
<g>
</g>
<g>
</g>
<g>
</g>
<g>
</g>
<g>
</g>
<g>
</g>
<g>
</g>
<g>
</g>
<g>
</g>
<g>
</g>
<g>
</g>
<g>
</g>
<g>
</g>
<g>
</g>
</svg>
