<svg viewBox="0 -56 512 512" xmlns="http://www.w3.org/2000/svg"><path d="m482.25 90c-9.886719 0-445.824219 0-452 0-11.050781 0-20 8.949219-20 20v260c0 11.050781 8.949219 20 20 20h452c11.050781 0 20-8.949219 20-20v-260c0-11.050781-8.949219-20-20-20zm0 0" fill="#ff6c6c"/><path d="m410.039062 25.148438 16.210938 64.851562h-240l16.210938-64.851562c2.230468-8.898438 10.230468-15.148438 19.410156-15.148438h168.757812c9.179688 0 17.179688 6.25 19.410156 15.148438zm0 0" fill="#3a5361"/><path d="m306.25 130c60.75 0 110 49.25 110 110s-49.25 110-110 110-110-49.25-110-110 49.25-110 110-110zm0 0" fill="#fff"/><path d="m306.25 170c38.589844 0 70 31.410156 70 70s-31.410156 70-70 70-70-31.410156-70-70 31.410156-70 70-70zm0 0" fill="#a9def8"/><path d="m130.25 70v20h-80v-20c0-11.050781 8.949219-20 20-20h40c11.050781 0 20 8.949219 20 20zm0 0" fill="#3a5361"/><path d="m10.25 150h80c11.050781 0 20 8.949219 20 20v140c0 11.050781-8.949219 20-20 20h-80c0-36.039062 0-144.089844 0-180zm0 0" fill="#3a5361"/><path d="m246 40c-5.519531 0-10 4.480469-10 10s4.480469 10 10 10 10-4.480469 10-10-4.480469-10-10-10zm0 0"/><path d="m482 80h-48.191406l-14.320313-57.28125c-3.351562-13.375-15.320312-22.71875-29.109375-22.71875h-168.757812c-13.789063 0-25.757813 9.34375-29.113282 22.726562l-14.316406 57.273438h-38.191406v-10c0-16.542969-13.457031-30-30-30h-40c-16.542969 0-30 13.457031-30 30v10h-10c-16.542969 0-30 13.457031-30 30v260c0 16.542969 13.457031 30 30 30h452c16.542969 0 30-13.457031 30-30v-260c0-16.542969-13.457031-30-30-30zm-270.089844-52.417969c1.117188-4.464843 5.109375-7.582031 9.710938-7.582031h168.757812c4.601563 0 8.59375 3.117188 9.710938 7.574219l13.101562 52.425781h-214.382812zm-151.910156 42.417969c0-5.515625 4.484375-10 10-10h40c5.515625 0 10 4.484375 10 10v10h-60zm-40 210h30c5.523438 0 10-4.476562 10-10s-4.476562-10-10-10h-30v-40h30c5.523438 0 10-4.476562 10-10s-4.476562-10-10-10h-30v-40h70c5.515625 0 10 4.484375 10 10v140c0 5.515625-4.484375 10-10 10h-70zm472 90c0 5.515625-4.484375 10-10 10h-452c-5.515625 0-10-4.484375-10-10v-30h70c16.542969 0 30-13.457031 30-30v-140c0-16.542969-13.457031-30-30-30h-70v-30c0-5.515625 4.484375-10 10-10h452c5.515625 0 10 4.484375 10 10zm0 0"/><path d="m306 120c-66.167969 0-120 53.832031-120 120s53.832031 120 120 120 120-53.832031 120-120-53.832031-120-120-120zm0 220c-55.140625 0-100-44.859375-100-100s44.859375-100 100-100 100 44.859375 100 100-44.859375 100-100 100zm0 0"/><path d="m306 160c-44.113281 0-80 35.886719-80 80s35.886719 80 80 80 80-35.886719 80-80-35.886719-80-80-80zm0 140c-33.085938 0-60-26.914062-60-60s26.914062-60 60-60 60 26.914062 60 60-26.914062 60-60 60zm0 0"/><path d="m306 200c-22.054688 0-40 17.945312-40 40 0 5.523438 4.476562 10 10 10s10-4.476562 10-10c0-11.027344 8.972656-20 20-20 5.523438 0 10-4.476562 10-10s-4.476562-10-10-10zm0 0"/><path d="m366 40h-80c-5.523438 0-10 4.476562-10 10s4.476562 10 10 10h80c5.523438 0 10-4.476562 10-10s-4.476562-10-10-10zm0 0"/><path d="m462 120h-46c-5.523438 0-10 4.476562-10 10s4.476562 10 10 10h46c5.523438 0 10-4.476562 10-10s-4.476562-10-10-10zm0 0"/></svg>