<?xml version="1.0" encoding="iso-8859-1"?>
<!-- Generator: Adobe Illustrator 21.0.0, SVG Export Plug-In . SVG Version: 6.00 Build 0)  -->
<svg xmlns="http://www.w3.org/2000/svg" xmlns:xlink="http://www.w3.org/1999/xlink" version="1.1" id="Capa_1" x="0px" y="0px" viewBox="0 0 512.036 512.036" style="enable-background:new 0 0 512.036 512.036;" xml:space="preserve" width="512" height="512">
<g>
	<g>
		<path style="fill:#E4E3E1;" d="M494.629,73.304c-0.733-3.294-4.808-4.493-7.194-2.107l-51.124,51.124    c-1.846,1.846-4.536,2.566-7.057,1.891l-34.465-9.235c-2.544-0.682-4.531-2.669-5.212-5.212l-9.176-34.245    c-0.712-2.657,0.048-5.492,1.993-7.438l51.197-51.197c2.286-2.286,1.133-6.172-2.019-6.886    c-63.946-14.487-119.159,46.919-97.297,109.393c0.965,2.757,0.321,5.82-1.745,7.886c-8.377,8.377-194.649,194.649-204.259,204.26    c-2.862,2.862-7.086,3.84-10.933,2.583C55.273,313.843-4.741,368.681,9.597,431.976c0.714,3.152,4.601,4.304,6.886,2.019    l51.198-51.198c1.945-1.945,4.78-2.705,7.438-1.993l34.245,9.176c2.544,0.681,4.531,2.668,5.212,5.212l9.234,34.465    c0.675,2.521-0.045,5.211-1.891,7.058l-51.123,51.123c-2.362,2.362-1.232,6.447,2.029,7.175    c63.632,14.218,118.435-46.664,97.474-108.488c-1.169-3.446-0.267-7.255,2.306-9.829c7.798-7.798,196.913-196.912,204.663-204.663    c2.038-2.038,5.063-2.671,7.78-1.708C446.946,192.262,508.899,137.469,494.629,73.304z"/>
		<g>
			<g>
				<path style="fill:#D1D0CF;" d="M131.839,347.621c3.847,1.257,8.071,0.278,10.933-2.583      c9.611-9.611,195.883-195.883,204.259-204.26c2.066-2.066,2.71-5.129,1.745-7.886C328.88,76.035,372.825,20.071,429.09,21.387      l4.502-4.502c2.286-2.286,1.133-6.172-2.019-6.886c-63.946-14.487-119.159,46.919-97.297,109.393      c0.965,2.757,0.321,5.82-1.745,7.886c-8.377,8.377-194.649,194.649-204.259,204.26c-2.862,2.862-7.086,3.84-10.933,2.583      C55.273,313.843-4.741,368.681,9.597,431.976c0.714,3.152,4.601,4.304,6.886,2.019l5.5-5.5      C20.682,372.844,75.408,329.185,131.839,347.621z"/>
			</g>
		</g>
		
			<rect x="240.365" y="243.152" transform="matrix(0.7071 -0.7071 0.7071 0.7071 -108.0359 260.2541)" style="fill:#3E4151;" width="39.543" height="34.771"/>
		
			<rect x="243.207" y="250.015" transform="matrix(0.7071 -0.7071 0.7071 0.7071 -114.8984 257.4116)" style="fill:#353744;" width="20.133" height="34.771"/>
		
			<rect x="150.211" y="47.115" transform="matrix(0.7071 -0.7071 0.7071 0.7071 -68.4356 164.65)" style="fill:#E4E3E1;" width="28.643" height="235.637"/>
		
			<rect x="151.537" y="50.316" transform="matrix(0.7071 -0.7071 0.7071 0.7071 -71.6362 163.3242)" style="fill:#D1D0CF;" width="19.59" height="235.637"/>
		<path style="fill:#D1D0CF;" d="M65.342,51.091c-2.334-1.832-5.668-1.631-7.766,0.466l-6.867,6.867    c-1.843,1.843-2.019,4.772-0.41,6.823l20.796,26.503l20.254-20.254L65.342,51.091z"/>
		<path style="fill:#C1C1C1;" d="M63.865,51.025c-0.245-0.312-0.455-0.64-0.645-0.975c-1.964-0.519-4.126-0.01-5.643,1.507    l-6.867,6.867c-1.843,1.843-2.019,4.772-0.41,6.823l20.796,26.503l13.854-13.854L63.865,51.025z"/>
		<path style="fill:#EA3F3F;" d="M286.812,245.211l-42.002,42.002c-8.312,8.312-8.312,21.789,0,30.101l181.343,181.343    c8.312,8.312,21.789,8.312,30.101,0l42.002-42.002c8.312-8.312,8.312-21.789,0-30.101L316.913,245.211    C308.601,236.899,295.124,236.899,286.812,245.211z"/>
		<path style="fill:#D4352F;" d="M442.102,486.633L256.833,301.365c-5.54-5.54-8.012-12.751-7.176-18.999l-4.848,4.848    c-8.312,8.312-8.312,21.789,0,30.101l181.343,181.343c8.313,8.312,21.789,8.312,30.101,0l4.848-4.848    C454.852,494.645,447.642,492.174,442.102,486.633z"/>
		<path style="fill:#ED5454;" d="M286.811,245.211l-42.002,42.002c-8.312,8.312-8.312,21.789,0,30.101l9.92,9.92l72.103-72.103    l-9.92-9.92C308.6,236.899,295.124,236.899,286.811,245.211z"/>
		<path style="fill:#EA3F3F;" d="M244.809,287.213c-8.251,8.251-8.362,21.739,0,30.101l9.92,9.92l13.987-13.987l-11.883-11.883    c-5.54-5.54-8.012-12.751-7.176-18.999L244.809,287.213z"/>
	</g>
	<g>
		<path d="M342.018,151.64l-47.09,47.09c-2.929,2.93-2.929,7.678,0,10.607c1.465,1.464,3.385,2.196,5.304,2.196    s3.839-0.732,5.304-2.196l47.09-47.09c2.929-2.93,2.929-7.678,0-10.607C349.695,148.712,344.947,148.712,342.018,151.64z"/>
		<path d="M162.24,352.632l47.09-47.09c2.929-2.93,2.929-7.678,0-10.607c-2.93-2.928-7.678-2.928-10.607,0l-47.09,47.09    c-2.929,2.93-2.929,7.678,0,10.607C154.563,355.561,159.31,355.56,162.24,352.632z"/>
		<path d="M294.711,318.483c-2.929,2.93-2.929,7.678,0,10.607l138.806,138.806c2.931,2.929,7.678,2.928,10.607,0    c2.929-2.93,2.929-7.678,0-10.607L305.318,318.483C302.389,315.555,297.641,315.555,294.711,318.483z"/>
		<path d="M467.889,444.131c2.929-2.93,2.929-7.678,0-10.607L329.083,294.718c-2.93-2.928-7.678-2.928-10.607,0    c-2.929,2.93-2.929,7.678,0,10.607l138.806,138.806C460.212,447.06,464.959,447.059,467.889,444.131z"/>
		<path d="M21.839,438.956l51.197-51.197c0.05-0.051,0.127-0.068,0.192-0.052l34.173,9.157l9.187,34.284l-51.044,51.043    c-6.544,6.544-3.308,17.786,5.696,19.799c6.813,1.522,13.634,2.268,20.366,2.268c60.257,0,106.383-59.912,85.847-120.481    c-0.248-0.731-0.049-1.563,0.507-2.118l60.521-60.521c0.897,1-9.809-9.748,182.419,182.482c11.224,11.222,29.484,11.223,40.709,0    l42.002-42.002c11.223-11.224,11.223-29.485,0-40.709l-68.021-68.021c-2.93-2.928-7.678-2.928-10.607,0    c-2.929,2.93-2.929,7.678,0,10.607l68.021,68.021c5.375,5.374,5.375,14.12,0,19.494l-42.002,42.002    c-5.373,5.375-14.121,5.375-19.494,0l-166.119-166.12l61.496-61.496l73.35,73.35c2.93,2.928,7.678,2.928,10.607,0    c2.929-2.93,2.929-7.678,0-10.607c-96.112-96.111-88.725-88.764-89.711-89.648l61.463-61.437    c28.066,9.944,58.115,5.907,82.438-11.079c3.396-2.372,4.227-7.048,1.854-10.443c-2.371-3.397-7.047-4.229-10.442-1.854    c-20.305,14.18-45.397,17.546-68.838,9.239c-5.438-1.929-11.557-0.564-15.592,3.473l-65.172,65.173    c-9.628-1.653-18.881,1.602-25.282,8.004h-0.001l-1.716,1.716l-7.499-7.499c1.813-2.896,1.467-6.757-1.052-9.277    c-2.93-2.928-7.678-2.928-10.607,0l-2.663,2.663l-7.532-7.532l87.399-87.398c4.05-4.051,5.432-10.2,3.52-15.667    c-19.203-54.876,26.756-108.8,82.352-100.751l-46.615,46.615c-3.827,3.828-5.335,9.454-3.934,14.683l9.176,34.245    c1.371,5.115,5.4,9.145,10.515,10.515l34.467,9.236c5.09,1.361,10.571-0.106,14.3-3.833l46.773-46.774    c2.496,17.433-1.021,34.948-10.124,49.905c-2.154,3.538-1.031,8.152,2.507,10.306c3.538,2.156,8.152,1.032,10.306-2.507    c12.159-19.978,16.021-43.729,10.872-66.88c-0.935-4.2-4.081-7.556-8.212-8.758c-4.121-1.2-8.568-0.059-11.605,2.977    l-51.045,51.046l-34.283-9.188l-9.157-34.172c-0.019-0.069,0.002-0.144,0.053-0.193l51.196-51.197    c2.981-2.982,4.107-7.351,2.938-11.398c-1.175-4.064-4.472-7.17-8.603-8.105C363.54-13.464,303.423,53.434,327.25,121.526    c0.023,0.067,0.019,0.111,0.024,0.113l-87.392,87.391L96.705,65.851c-0.014-0.014-0.029-0.026-0.043-0.039    c-0.063-0.062-0.131-0.117-0.195-0.177c-0.125-0.115-0.25-0.229-0.382-0.334c-0.019-0.015-0.035-0.032-0.053-0.047L70.024,44.848    h-0.001c-5.313-4.17-12.921-3.711-17.698,1.063l-6.865,6.866c-4.524,4.521-4.958,11.726-1.009,16.758l20.796,26.503    c0.015,0.019,0.032,0.035,0.047,0.053c0.105,0.132,0.219,0.257,0.334,0.382c0.059,0.065,0.115,0.133,0.177,0.195    c0.014,0.014,0.025,0.03,0.039,0.043L209.022,239.89l-86.001,86.001c-0.853,0.854-2.118,1.143-3.301,0.759    c-31.739-10.369-65.356-3.191-89.933,19.199c-24.531,22.35-34.794,55.037-27.454,87.442    C4.349,442.183,15.383,445.407,21.839,438.956z M91.402,81.762c7.115,7.115,149.343,149.344,156.013,156.014l-9.646,9.646    C231.71,241.363,90.447,100.102,81.754,91.409L91.402,81.762z M244.521,261.883l17.355-17.355l7.36,7.36l-17.354,17.355    L244.521,261.883z M254.782,316.285l-4.616-4.616c-5.319-5.318-5.364-14.13,0-19.494c3.124-3.124,35.862-35.862,42.002-42.002    c0.014-0.014,0.03-0.027,0.044-0.041c5.212-5.187,14.007-5.406,19.449,0.041l4.617,4.617L254.782,316.285z M61.906,57.544    l18.209,14.289l-8.29,8.29L57.537,61.914L61.906,57.544z M39.891,356.938c20.532-18.708,48.635-24.7,75.172-16.03    c6.583,2.15,13.695,0.46,18.566-4.409l86-86.001l7.532,7.532l-2.663,2.663c-2.929,2.93-2.929,7.678,0,10.607    c2.483,2.482,6.325,2.9,9.277,1.052l7.5,7.5l-1.717,1.717c-6.554,6.554-9.59,15.956-7.989,25.267l-64.216,64.215    c-4.63,4.631-6.203,11.352-4.106,17.54l0.001,0.001c18.388,54.232-27.208,107.862-82.749,99.859l46.776-46.775    c3.729-3.729,5.196-9.21,3.831-14.302l-9.233-34.462c-1.369-5.118-5.4-9.149-10.516-10.518l-34.246-9.176    c-5.229-1.405-10.855,0.106-14.682,3.933l-46.615,46.616C12.213,398.783,20.97,374.175,39.891,356.938z"/>
	</g>
</g>















</svg>
