<?xml version="1.0" encoding="iso-8859-1"?>
<!-- Generator: Adobe Illustrator 19.0.0, SVG Export Plug-In . SVG Version: 6.00 Build 0)  -->
<svg xmlns="http://www.w3.org/2000/svg" xmlns:xlink="http://www.w3.org/1999/xlink" version="1.1" id="Capa_1" x="0px" y="0px" viewBox="0 0 512 512" style="enable-background:new 0 0 512 512;" xml:space="preserve" width="512px" height="512px">
<g>
	<g>
		<path d="M300.706,253.157h-8.817c-5.522,0-10,4.478-10,10c0,5.522,4.478,10,10,10h8.817c5.523,0,10-4.478,10-10    C310.706,257.635,306.228,253.157,300.706,253.157z" fill="#FFFFFF"/>
	</g>
</g>
<g>
	<g>
		<path d="M220.111,253.157h-8.817c-5.522,0-10,4.478-10,10c0,5.522,4.478,10,10,10h8.817c5.523,0,10-4.478,10-10    C230.111,257.635,225.633,253.157,220.111,253.157z" fill="#FFFFFF"/>
	</g>
</g>
<g>
	<g>
		<path d="M287.468,305.928c-3.907-3.904-10.237-3.904-14.143,0c-9.552,9.553-25.097,9.553-34.65,0    c-3.907-3.904-10.237-3.904-14.143,0c-3.905,3.906-3.905,10.238,0,14.143c8.676,8.676,20.072,13.014,31.468,13.014    c11.396,0,22.792-4.338,31.468-13.014C291.373,316.165,291.373,309.833,287.468,305.928z" fill="#FFFFFF"/>
	</g>
</g>
<g>
	<g>
		<path d="M385.998,468.86c-0.12-0.63-0.32-1.26-0.57-1.869c-0.25-0.601-0.56-1.181-0.92-1.721c-0.36-0.55-0.78-1.06-1.24-1.52    c-0.46-0.46-0.97-0.88-1.52-1.25c-0.54-0.36-1.12-0.67-1.73-0.92c-0.599-0.25-1.229-0.44-1.87-0.57c-1.29-0.26-2.619-0.26-3.899,0    c-0.641,0.13-1.27,0.32-1.87,0.57c-0.61,0.25-1.19,0.56-1.73,0.92c-0.55,0.37-1.06,0.79-1.52,1.25c-0.46,0.46-0.88,0.97-1.24,1.52    c-0.37,0.54-0.67,1.12-0.92,1.721c-0.25,0.609-0.45,1.239-0.58,1.869c-0.129,0.65-0.189,1.311-0.189,1.96    c0,2.631,1.07,5.21,2.93,7.07c0.46,0.46,0.97,0.88,1.52,1.24c0.54,0.36,1.12,0.67,1.73,0.92c0.599,0.25,1.229,0.44,1.87,0.57    c0.639,0.13,1.3,0.199,1.95,0.199c0.65,0,1.31-0.069,1.947-0.199c0.641-0.13,1.27-0.32,1.87-0.57c0.61-0.25,1.19-0.56,1.73-0.92    c0.55-0.36,1.06-0.78,1.52-1.24c1.861-1.86,2.931-4.439,2.931-7.07C386.198,470.171,386.128,469.51,385.998,468.86z" fill="#FFFFFF"/>
	</g>
</g>
<g>
	<g>
		<path d="M380.822,349.612c-0.584-0.105-1.176-0.158-1.77-0.158h-11.144c1.856-4.446,1.997-9.524,0.192-14.299    c-2.872-7.594-9.972-12.501-18.088-12.501h-8.106c10.747-16.252,17.009-35.716,17.009-56.616c0,0-0.258-54.409-0.663-58.024    c0.937-1.522,1.478-3.315,1.478-5.233v-15.766c0-33.516,8.602-44.54,27.448-68.697c0.111-0.143,0.223-0.286,0.335-0.429    c3.897,1.203,8.036,1.851,12.323,1.851c23.086,0,41.867-18.781,41.867-41.867c0-23.085-18.781-41.866-41.867-41.866    c-21.844,0-39.834,16.817-41.705,38.183c-24.297,5.552-44.291,13.282-60.464,23.405L286.137,70.9    c7.26-7.532,11.73-17.77,11.73-29.033C297.867,18.781,279.086,0,256,0s-41.867,18.781-41.867,41.867    c0,11.263,4.471,21.5,11.73,29.033l-11.53,26.695c-16.173-10.123-36.167-17.854-60.464-23.405    c-1.871-21.367-19.861-38.183-41.705-38.183c-23.086,0-41.867,18.781-41.867,41.866c0,23.086,18.781,41.867,41.867,41.867    c4.287,0,8.425-0.648,12.323-1.851c0.112,0.143,0.223,0.286,0.335,0.429c18.847,24.157,27.448,35.182,27.448,68.697v15.766    c0,1.918,0.541,3.711,1.478,5.233c-0.406,3.615-0.663,58.024-0.663,58.024c0,20.9,6.262,40.365,17.009,56.616h-8.106    c-8.116,0-15.216,4.907-18.088,12.502c-1.806,4.777-1.664,9.858,0.187,14.298h-11.139c-0.594,0-1.186,0.053-1.77,0.158    c-29.518,5.307-50.942,30.925-50.942,60.916V502c0,5.522,4.478,10,10,10h331.529c5.522,0,10-4.478,10-10v-91.472    C431.765,380.537,410.34,354.919,380.822,349.612z M399.836,56.007c12.058,0,21.867,9.81,21.867,21.866    c0,12.058-9.81,21.867-21.867,21.867s-21.866-9.81-21.866-21.867S387.779,56.007,399.836,56.007z M361.203,94.009    c2.127,5.074,5.225,9.644,9.062,13.476c-19.07,24.457-30.535,39.922-30.535,79.531v5.766h-73.723    C266.555,140.628,296.905,109.062,361.203,94.009z M216.491,227.004c10.747,9.498,27.566,15.916,50.892,19.48    c24.347,3.72,51.393,3.674,71.533,3.579v15.975c0,45.72-37.196,82.915-82.916,82.915s-82.916-37.195-82.916-82.915v-16.409    C184.51,248.314,202.719,243.505,216.491,227.004z M173.1,229.477v-9.894c0-2.269,0.092-4.541,0.277-6.802h28.847    C193.311,224.24,181.292,228.169,173.1,229.477z M230.608,212.781h108.015c0.185,2.261,0.277,4.533,0.277,6.803v10.479    C308.765,230.218,251.757,230.229,230.608,212.781z M256,20c12.058,0,21.867,9.81,21.867,21.867S268.057,63.733,256,63.733    c-12.057,0-21.867-9.81-21.867-21.866C234.133,29.81,243.942,20,256,20z M242.999,81.667c4.094,1.341,8.465,2.066,13.001,2.066    c4.537,0,8.907-0.726,13.002-2.066l12.188,28.219c-0.09,0.081-0.181,0.161-0.271,0.241c-10.798,9.677-19.115,20.99-24.919,33.859    c-5.804-12.869-14.121-24.182-24.919-33.859c-0.09-0.081-0.18-0.161-0.27-0.241L242.999,81.667z M112.164,99.74    c-12.058,0-21.867-9.809-21.867-21.867c0-12.057,9.81-21.866,21.867-21.866s21.866,9.81,21.866,21.866    C134.03,89.931,124.22,99.74,112.164,99.74z M141.734,107.484c3.836-3.832,6.935-8.401,9.062-13.476    c64.299,15.053,94.648,46.619,95.196,98.773H172.27v-5.766C172.27,147.407,160.805,131.942,141.734,107.484z M187.357,342.654    L187.357,342.654c18.225,16.345,42.293,26.299,68.643,26.299c26.35,0,50.418-9.954,68.643-26.299h23.677l-27.896,24.836    c-2.978,2.651-4.097,6.817-2.847,10.604l12.585,38.122l-47.509-15.774c-4.732-1.571-9.89,0.579-12.106,5.04L256,434.759    l-14.548-29.277c-2.217-4.461-7.379-6.611-12.106-5.04l-47.509,15.774l12.585-38.122c1.25-3.786,0.131-7.952-2.847-10.604    l-27.896-24.836H187.357z M100.235,492v-11.182H336.2c5.522,0,10-4.478,10-10c0-5.522-4.478-10-10-10H100.235v-50.29    c0-20.017,14.102-37.157,33.651-41.074h29.818l9.667,8.606l-10.89,32.988c-2.449,7.11-0.651,14.787,4.703,20.055    c5.327,5.239,12.933,6.934,19.893,4.446l40.329-13.391l11.188,22.516c3.329,6.658,9.998,10.794,17.405,10.794    c7.408,0,14.078-4.136,17.416-10.814l11.178-22.495l40.364,13.402c7.035,2.466,14.676,0.723,19.974-4.573    c5.297-5.297,7.043-12.936,4.577-19.971l-10.88-32.957l9.667-8.606h29.817c19.55,3.917,33.651,21.058,33.651,41.074V492H100.235z" fill="#FFFFFF"/>
	</g>
</g>
<g>
</g>
<g>
</g>
<g>
</g>
<g>
</g>
<g>
</g>
<g>
</g>
<g>
</g>
<g>
</g>
<g>
</g>
<g>
</g>
<g>
</g>
<g>
</g>
<g>
</g>
<g>
</g>
<g>
</g>
</svg>
